<svg width="25" height="24" viewBox="0 0 25 24" fill="none" xmlns="http://www.w3.org/2000/svg">
<path d="M19.22 14.7599C19.57 13.9099 19.76 12.9999 19.76 11.9999C19.76 11.2799 19.65 10.5899 19.46 9.94995C18.81 10.0999 18.13 10.1799 17.42 10.1799C15.966 10.1815 14.5329 9.83347 13.2415 9.16517C11.9502 8.49687 10.8384 7.5279 10 6.33995C9.10396 8.51069 7.41172 10.2566 5.27 11.2199C5.23 11.4699 5.23 11.7399 5.23 11.9999C5.23 12.9547 5.41804 13.9 5.7834 14.7821C6.14875 15.6641 6.68425 16.4655 7.35933 17.1406C8.72272 18.504 10.5719 19.2699 12.5 19.2699C13.55 19.2699 14.56 19.0399 15.47 18.6299C16.04 19.7199 16.3 20.2599 16.28 20.2599C14.64 20.8099 13.37 21.0799 12.5 21.0799C10.08 21.0799 7.77 20.1299 6.07 18.4199C5.03505 17.3899 4.26627 16.1234 3.83 14.7299H2.5V10.1799H3.59C3.92024 8.57246 4.67949 7.08436 5.78719 5.87354C6.89489 4.66272 8.30971 3.77435 9.88153 3.3027C11.4534 2.83106 13.1235 2.79372 14.7149 3.19465C16.3062 3.59559 17.7593 4.41984 18.92 5.57995C20.1798 6.83553 21.0393 8.43623 21.39 10.1799H22.5V14.7299H22.44L18.88 17.9999L13.58 17.3999V15.7299H18.41L19.22 14.7599ZM9.77 11.7699C10.07 11.7699 10.36 11.8899 10.57 12.1099C10.781 12.3227 10.8995 12.6103 10.8995 12.9099C10.8995 13.2096 10.781 13.4972 10.57 13.7099C10.36 13.9199 10.07 14.0399 9.77 14.0399C9.14 14.0399 8.63 13.5399 8.63 12.9099C8.63 12.2799 9.14 11.7699 9.77 11.7699ZM15.22 11.7699C15.85 11.7699 16.35 12.2799 16.35 12.9099C16.35 13.5399 15.85 14.0399 15.22 14.0399C14.59 14.0399 14.08 13.5399 14.08 12.9099C14.08 12.6076 14.2001 12.3176 14.4139 12.1038C14.6277 11.8901 14.9177 11.7699 15.22 11.7699Z" fill="#E1DFF3"/>
</svg>
