<svg width="23" height="22" viewBox="0 0 23 22" fill="none" xmlns="http://www.w3.org/2000/svg">
<path d="M22.0591 15.609C22.0591 19.613 19.6721 22 15.6681 22H14.3591C13.7541 22 13.2591 21.505 13.2591 20.9V14.553C13.2591 14.256 13.5011 14.003 13.7981 14.003L15.7341 13.97C15.8881 13.959 16.0201 13.849 16.0531 13.695L16.4381 11.594C16.4711 11.396 16.3171 11.209 16.1081 11.209L13.7651 11.242C13.4571 11.242 13.2151 11 13.2041 10.703L13.1601 8.008C13.1601 7.832 13.3031 7.67801 13.4901 7.67801L16.1301 7.634C16.3171 7.634 16.4601 7.49101 16.4601 7.30401L16.4161 4.66399C16.4161 4.47699 16.2731 4.334 16.0861 4.334L13.1161 4.37801C11.2901 4.41101 9.83808 5.907 9.87108 7.733L9.92608 10.758C9.93708 11.066 9.69508 11.308 9.38708 11.319L8.06708 11.341C7.88008 11.341 7.73709 11.484 7.73709 11.671L7.77009 13.761C7.77009 13.948 7.91308 14.091 8.10008 14.091L9.42008 14.069C9.72808 14.069 9.97008 14.311 9.98108 14.608L10.0801 20.878C10.0911 21.494 9.59608 22 8.98008 22H6.45008C2.44608 22 0.059082 19.613 0.059082 15.598V6.391C0.059082 2.387 2.44608 0 6.45008 0H15.6681C19.6721 0 22.0591 2.387 22.0591 6.391V15.609Z" fill="#E1DFF3"/>
</svg>
