<svg width="25" height="24" viewBox="0 0 25 24" fill="none" xmlns="http://www.w3.org/2000/svg">
<path d="M17 5.5C17.5304 5.5 18.0391 5.28929 18.4142 4.91421C18.7893 4.53914 19 4.03043 19 3.5C19 2.96957 18.7893 2.46086 18.4142 2.08579C18.0391 1.71071 17.5304 1.5 17 1.5C16.4696 1.5 15.9609 1.71071 15.5858 2.08579C15.2107 2.46086 15 2.96957 15 3.5C15 4.03043 15.2107 4.53914 15.5858 4.91421C15.9609 5.28929 16.4696 5.5 17 5.5ZM13.4 19.4L14.4 15L16.5 17V23H18.5V15.5L16.4 13.5L17 10.5C17.6852 11.2851 18.5306 11.9145 19.4792 12.3457C20.4279 12.7769 21.4579 13 22.5 13V11C20.74 11.03 19.1 10.11 18.2 8.6L17.2 7C16.84 6.4 16.2 6 15.5 6C15.2 6 15 6.1 14.7 6.1L9.5 8.3V13H11.5V9.6L13.3 8.9L11.7 17L6.8 16L6.4 18L13.4 19.4ZM4.5 9C4.23478 9 3.98043 8.89464 3.79289 8.70711C3.60536 8.51957 3.5 8.26522 3.5 8C3.5 7.73478 3.60536 7.48043 3.79289 7.29289C3.98043 7.10536 4.23478 7 4.5 7H7.5V9H4.5ZM5.5 5C5.23478 5 4.98043 4.89464 4.79289 4.70711C4.60536 4.51957 4.5 4.26522 4.5 4C4.5 3.73478 4.60536 3.48043 4.79289 3.29289C4.98043 3.10536 5.23478 3 5.5 3H10.5V5H5.5ZM3.5 13C3.23478 13 2.98043 12.8946 2.79289 12.7071C2.60536 12.5196 2.5 12.2652 2.5 12C2.5 11.7348 2.60536 11.4804 2.79289 11.2929C2.98043 11.1054 3.23478 11 3.5 11H7.5V13H3.5Z" fill="#E1DFF3"/>
</svg>
