<svg width="175" height="72" viewBox="0 0 175 72" fill="none" xmlns="http://www.w3.org/2000/svg">
<g filter="url(#filter0_f_857_18069)">
<rect x="4.5" y="4" width="166" height="64" rx="32" fill="#2A2642"/>
</g>
<circle cx="53.5" cy="36" r="16" fill="black"/>
<path d="M47.4187 39.7903C47.5296 39.6794 47.682 39.6147 47.8437 39.6147H62.507C62.775 39.6147 62.909 39.9381 62.7196 40.1275L59.8229 43.0242C59.712 43.1351 59.5596 43.1997 59.3979 43.1997H44.7346C44.4666 43.1997 44.3326 42.8763 44.5221 42.6869L47.4187 39.7903Z" fill="url(#paint0_linear_857_18069)"/>
<path d="M47.4187 28.9754C47.5342 28.8645 47.6866 28.7998 47.8437 28.7998H62.507C62.775 28.7998 62.909 29.1232 62.7196 29.3126L59.8229 32.2092C59.712 32.3201 59.5596 32.3848 59.3979 32.3848H44.7346C44.4666 32.3848 44.3326 32.0614 44.5221 31.872L47.4187 28.9754Z" fill="url(#paint1_linear_857_18069)"/>
<path d="M59.8229 34.3484C59.712 34.2375 59.5596 34.1729 59.3979 34.1729H44.7346C44.4666 34.1729 44.3326 34.4962 44.5221 34.6857L47.4187 37.5823C47.5296 37.6932 47.682 37.7578 47.8437 37.7578H62.507C62.775 37.7578 62.909 37.4345 62.7196 37.245L59.8229 34.3484Z" fill="url(#paint2_linear_857_18069)"/>
<path d="M89.17 42.216C88.498 42.216 87.886 42.138 87.334 41.982C86.794 41.826 86.32 41.616 85.912 41.352C85.516 41.076 85.186 40.77 84.922 40.434C84.658 40.098 84.472 39.744 84.364 39.372L86.074 38.814C86.254 39.306 86.596 39.732 87.1 40.092C87.604 40.452 88.222 40.638 88.954 40.65C89.842 40.65 90.538 40.476 91.042 40.128C91.558 39.768 91.816 39.294 91.816 38.706C91.816 38.166 91.594 37.728 91.15 37.392C90.706 37.044 90.118 36.78 89.386 36.6L87.928 36.222C87.352 36.066 86.824 35.844 86.344 35.556C85.876 35.268 85.504 34.902 85.228 34.458C84.952 34.014 84.814 33.48 84.814 32.856C84.814 31.704 85.186 30.804 85.93 30.156C86.686 29.508 87.772 29.184 89.188 29.184C90.004 29.184 90.712 29.316 91.312 29.58C91.912 29.832 92.404 30.168 92.788 30.588C93.184 31.008 93.466 31.47 93.634 31.974L91.924 32.55C91.72 32.01 91.372 31.578 90.88 31.254C90.388 30.918 89.782 30.75 89.062 30.75C88.306 30.75 87.706 30.93 87.262 31.29C86.83 31.65 86.614 32.142 86.614 32.766C86.614 33.294 86.782 33.702 87.118 33.99C87.466 34.266 87.928 34.476 88.504 34.62L89.962 34.98C91.138 35.268 92.044 35.748 92.68 36.42C93.328 37.08 93.652 37.806 93.652 38.598C93.652 39.282 93.478 39.9 93.13 40.452C92.794 40.992 92.29 41.424 91.618 41.748C90.958 42.06 90.142 42.216 89.17 42.216ZM99.7775 42.216C98.8775 42.216 98.0855 42.018 97.4015 41.622C96.7175 41.214 96.1775 40.656 95.7815 39.948C95.3975 39.24 95.2055 38.424 95.2055 37.5C95.2055 36.576 95.3975 35.76 95.7815 35.052C96.1655 34.344 96.6995 33.792 97.3835 33.396C98.0675 32.988 98.8535 32.784 99.7415 32.784C100.629 32.784 101.415 32.988 102.099 33.396C102.783 33.792 103.317 34.344 103.701 35.052C104.085 35.76 104.277 36.576 104.277 37.5C104.277 38.424 104.085 39.24 103.701 39.948C103.317 40.656 102.783 41.214 102.099 41.622C101.427 42.018 100.653 42.216 99.7775 42.216ZM99.7775 40.65C100.317 40.65 100.797 40.518 101.217 40.254C101.637 39.978 101.961 39.606 102.189 39.138C102.429 38.67 102.549 38.124 102.549 37.5C102.549 36.876 102.429 36.33 102.189 35.862C101.961 35.394 101.631 35.028 101.199 34.764C100.767 34.488 100.281 34.35 99.7415 34.35C99.1895 34.35 98.7035 34.488 98.2835 34.764C97.8635 35.028 97.5335 35.394 97.2935 35.862C97.0535 36.33 96.9335 36.876 96.9335 37.5C96.9335 38.124 97.0535 38.67 97.2935 39.138C97.5335 39.606 97.8695 39.978 98.3015 40.254C98.7335 40.518 99.2255 40.65 99.7775 40.65ZM106.151 42V29.4H107.861V42H106.151ZM115.755 42L115.683 40.434V37.302C115.683 36.642 115.605 36.09 115.449 35.646C115.305 35.202 115.077 34.866 114.765 34.638C114.465 34.41 114.063 34.296 113.559 34.296C113.091 34.296 112.683 34.392 112.335 34.584C111.999 34.776 111.717 35.076 111.489 35.484L109.977 34.908C110.193 34.5 110.463 34.14 110.787 33.828C111.111 33.504 111.501 33.252 111.957 33.072C112.413 32.88 112.947 32.784 113.559 32.784C114.411 32.784 115.119 32.952 115.683 33.288C116.247 33.624 116.667 34.11 116.943 34.746C117.231 35.382 117.369 36.168 117.357 37.104L117.339 42H115.755ZM113.109 42.216C112.041 42.216 111.207 41.976 110.607 41.496C110.019 41.004 109.725 40.326 109.725 39.462C109.725 38.538 110.031 37.836 110.643 37.356C111.267 36.864 112.131 36.618 113.235 36.618H115.737V37.968H113.703C112.875 37.968 112.293 38.1 111.957 38.364C111.621 38.616 111.453 38.97 111.453 39.426C111.453 39.846 111.609 40.176 111.921 40.416C112.245 40.644 112.689 40.758 113.253 40.758C113.745 40.758 114.171 40.656 114.531 40.452C114.891 40.236 115.173 39.936 115.377 39.552C115.581 39.168 115.683 38.73 115.683 38.238H116.277C116.277 39.462 116.013 40.434 115.485 41.154C114.969 41.862 114.177 42.216 113.109 42.216ZM119.51 42V33H121.112L121.22 34.656V42H119.51ZM125.738 42V37.392H127.448V42H125.738ZM125.738 37.392C125.738 36.576 125.642 35.958 125.45 35.538C125.27 35.106 125.012 34.806 124.676 34.638C124.352 34.47 123.974 34.38 123.542 34.368C122.81 34.368 122.24 34.626 121.832 35.142C121.424 35.658 121.22 36.384 121.22 37.32H120.482C120.482 36.372 120.62 35.562 120.896 34.89C121.184 34.206 121.586 33.684 122.102 33.324C122.63 32.964 123.254 32.784 123.974 32.784C124.682 32.784 125.294 32.928 125.81 33.216C126.338 33.504 126.74 33.954 127.016 34.566C127.304 35.166 127.448 35.958 127.448 36.942V37.392H125.738ZM135.126 42L135.054 40.434V37.302C135.054 36.642 134.976 36.09 134.82 35.646C134.676 35.202 134.448 34.866 134.136 34.638C133.836 34.41 133.434 34.296 132.93 34.296C132.462 34.296 132.054 34.392 131.706 34.584C131.37 34.776 131.088 35.076 130.86 35.484L129.348 34.908C129.564 34.5 129.834 34.14 130.158 33.828C130.482 33.504 130.872 33.252 131.328 33.072C131.784 32.88 132.318 32.784 132.93 32.784C133.782 32.784 134.49 32.952 135.054 33.288C135.618 33.624 136.038 34.11 136.314 34.746C136.602 35.382 136.74 36.168 136.728 37.104L136.71 42H135.126ZM132.48 42.216C131.412 42.216 130.578 41.976 129.978 41.496C129.39 41.004 129.096 40.326 129.096 39.462C129.096 38.538 129.402 37.836 130.014 37.356C130.638 36.864 131.502 36.618 132.606 36.618H135.108V37.968H133.074C132.246 37.968 131.664 38.1 131.328 38.364C130.992 38.616 130.824 38.97 130.824 39.426C130.824 39.846 130.98 40.176 131.292 40.416C131.616 40.644 132.06 40.758 132.624 40.758C133.116 40.758 133.542 40.656 133.902 40.452C134.262 40.236 134.544 39.936 134.748 39.552C134.952 39.168 135.054 38.73 135.054 38.238H135.648C135.648 39.462 135.384 40.434 134.856 41.154C134.34 41.862 133.548 42.216 132.48 42.216Z" fill="#E1DFF3"/>
<defs>
<filter id="filter0_f_857_18069" x="0.5" y="0" width="174" height="72" filterUnits="userSpaceOnUse" color-interpolation-filters="sRGB">
<feFlood flood-opacity="0" result="BackgroundImageFix"/>
<feBlend mode="normal" in="SourceGraphic" in2="BackgroundImageFix" result="shape"/>
<feGaussianBlur stdDeviation="2" result="effect1_foregroundBlur_857_18069"/>
</filter>
<linearGradient id="paint0_linear_857_18069" x1="11.2917" y1="26.0794" x2="10.9015" y2="45.7112" gradientUnits="userSpaceOnUse">
<stop stop-color="#00FFA3"/>
<stop offset="1" stop-color="#DC1FFF"/>
</linearGradient>
<linearGradient id="paint1_linear_857_18069" x1="6.85433" y1="23.7628" x2="6.46419" y2="43.3946" gradientUnits="userSpaceOnUse">
<stop stop-color="#00FFA3"/>
<stop offset="1" stop-color="#DC1FFF"/>
</linearGradient>
<linearGradient id="paint2_linear_857_18069" x1="9.05887" y1="24.9139" x2="8.66872" y2="44.5457" gradientUnits="userSpaceOnUse">
<stop stop-color="#00FFA3"/>
<stop offset="1" stop-color="#DC1FFF"/>
</linearGradient>
</defs>
</svg>
