<svg width="199" height="72" viewBox="0 0 199 72" fill="none" xmlns="http://www.w3.org/2000/svg">
<g filter="url(#filter0_f_857_18057)">
<rect x="4.5" y="4" width="190" height="64" rx="32" fill="#2A2642"/>
</g>
<circle cx="52.5" cy="36" r="16" fill="#EDF0F4"/>
<path d="M52.4564 26.3999L52.3291 26.8322V39.3767L52.4564 39.5037L58.2793 36.0617L52.4564 26.3999Z" fill="#343434"/>
<path d="M52.4563 26.3999L46.6333 36.0617L52.4563 39.5037V33.415V26.3999Z" fill="#8C8C8C"/>
<path d="M52.4563 40.6062L52.3845 40.6937V45.1622L52.4563 45.3716L58.2827 37.166L52.4563 40.6062Z" fill="#3C3C3B"/>
<path d="M52.4563 45.3716V40.6062L46.6333 37.166L52.4563 45.3716Z" fill="#8C8C8C"/>
<path d="M52.4563 39.5038L58.2792 36.0618L52.4563 33.415V39.5038Z" fill="#141414"/>
<path d="M46.6333 36.0618L52.4563 39.5038V33.415L46.6333 36.0618Z" fill="#393939"/>
<path d="M84.102 42V29.4H91.68V31.02H85.866V34.764H91.104V36.348H85.866V40.38H91.716V42H84.102ZM97.7968 42.216C96.8968 42.216 96.2008 41.988 95.7088 41.532C95.2168 41.064 94.9708 40.398 94.9708 39.534V30.192H96.6808V39.282C96.6808 39.726 96.7888 40.068 97.0048 40.308C97.2328 40.536 97.5568 40.65 97.9768 40.65C98.0968 40.65 98.2288 40.626 98.3728 40.578C98.5168 40.53 98.6908 40.434 98.8948 40.29L99.5428 41.622C99.2308 41.826 98.9308 41.976 98.6428 42.072C98.3668 42.168 98.0848 42.216 97.7968 42.216ZM93.4408 34.476V33H99.2368V34.476H93.4408ZM101.249 42V29.4H102.941V42H101.249ZM107.477 42V37.392H109.169V42H107.477ZM107.477 37.392C107.477 36.576 107.381 35.958 107.189 35.538C106.997 35.106 106.733 34.806 106.397 34.638C106.073 34.47 105.701 34.38 105.281 34.368C104.537 34.368 103.961 34.626 103.553 35.142C103.145 35.658 102.941 36.384 102.941 37.32H102.221C102.221 36.372 102.359 35.562 102.635 34.89C102.923 34.206 103.325 33.684 103.841 33.324C104.369 32.964 104.993 32.784 105.713 32.784C106.421 32.784 107.033 32.928 107.549 33.216C108.065 33.504 108.467 33.954 108.755 34.566C109.043 35.166 109.181 35.958 109.169 36.942V37.392H107.477ZM115.299 42.216C114.423 42.216 113.649 42.018 112.977 41.622C112.305 41.214 111.777 40.656 111.393 39.948C111.009 39.24 110.817 38.424 110.817 37.5C110.817 36.576 111.009 35.76 111.393 35.052C111.777 34.344 112.305 33.792 112.977 33.396C113.661 32.988 114.441 32.784 115.317 32.784C116.145 32.784 116.871 32.994 117.495 33.414C118.119 33.822 118.605 34.41 118.953 35.178C119.313 35.934 119.493 36.828 119.493 37.86H112.221L112.545 37.59C112.545 38.226 112.671 38.778 112.923 39.246C113.175 39.714 113.517 40.074 113.949 40.326C114.381 40.566 114.873 40.686 115.425 40.686C116.025 40.686 116.523 40.548 116.919 40.272C117.327 39.984 117.645 39.624 117.873 39.192L119.349 39.876C119.109 40.344 118.797 40.758 118.413 41.118C118.029 41.466 117.573 41.736 117.045 41.928C116.529 42.12 115.947 42.216 115.299 42.216ZM112.653 36.78L112.311 36.51H117.999L117.675 36.78C117.675 36.252 117.567 35.802 117.351 35.43C117.135 35.046 116.847 34.758 116.487 34.566C116.127 34.362 115.725 34.26 115.281 34.26C114.849 34.26 114.429 34.362 114.021 34.566C113.625 34.758 113.295 35.04 113.031 35.412C112.779 35.784 112.653 36.24 112.653 36.78ZM122.226 37.158C122.226 36.186 122.412 35.394 122.784 34.782C123.156 34.17 123.636 33.714 124.224 33.414C124.812 33.114 125.43 32.964 126.078 32.964V34.584C125.538 34.584 125.022 34.668 124.53 34.836C124.05 34.992 123.654 35.256 123.342 35.628C123.042 35.988 122.892 36.48 122.892 37.104L122.226 37.158ZM121.182 42V33H122.892V42H121.182ZM131.436 42.216C130.56 42.216 129.786 42.018 129.114 41.622C128.442 41.214 127.914 40.656 127.53 39.948C127.146 39.24 126.954 38.424 126.954 37.5C126.954 36.576 127.146 35.76 127.53 35.052C127.914 34.344 128.442 33.792 129.114 33.396C129.798 32.988 130.578 32.784 131.454 32.784C132.282 32.784 133.008 32.994 133.632 33.414C134.256 33.822 134.742 34.41 135.09 35.178C135.45 35.934 135.63 36.828 135.63 37.86H128.358L128.682 37.59C128.682 38.226 128.808 38.778 129.06 39.246C129.312 39.714 129.654 40.074 130.086 40.326C130.518 40.566 131.01 40.686 131.562 40.686C132.162 40.686 132.66 40.548 133.056 40.272C133.464 39.984 133.782 39.624 134.01 39.192L135.486 39.876C135.246 40.344 134.934 40.758 134.55 41.118C134.166 41.466 133.71 41.736 133.182 41.928C132.666 42.12 132.084 42.216 131.436 42.216ZM128.79 36.78L128.448 36.51H134.136L133.812 36.78C133.812 36.252 133.704 35.802 133.488 35.43C133.272 35.046 132.984 34.758 132.624 34.566C132.264 34.362 131.862 34.26 131.418 34.26C130.986 34.26 130.566 34.362 130.158 34.566C129.762 34.758 129.432 35.04 129.168 35.412C128.916 35.784 128.79 36.24 128.79 36.78ZM143.439 42L143.331 40.344V33H145.023V42H143.439ZM137.103 37.608V33H138.813V37.608H137.103ZM138.813 37.608C138.813 38.412 138.903 39.03 139.083 39.462C139.275 39.894 139.539 40.194 139.875 40.362C140.211 40.53 140.589 40.62 141.009 40.632C141.741 40.632 142.311 40.374 142.719 39.858C143.127 39.342 143.331 38.616 143.331 37.68H144.069C144.069 38.628 143.925 39.444 143.637 40.128C143.361 40.8 142.965 41.316 142.449 41.676C141.933 42.036 141.303 42.216 140.559 42.216C139.863 42.216 139.251 42.072 138.723 41.784C138.207 41.496 137.805 41.046 137.517 40.434C137.241 39.822 137.103 39.03 137.103 38.058V37.608H138.813ZM147.409 42V33H149.011L149.083 34.242C149.371 33.762 149.731 33.402 150.163 33.162C150.595 32.91 151.093 32.784 151.657 32.784C152.377 32.784 152.989 32.952 153.493 33.288C153.997 33.612 154.363 34.11 154.591 34.782C154.855 34.134 155.227 33.642 155.707 33.306C156.187 32.958 156.757 32.784 157.417 32.784C158.437 32.784 159.235 33.12 159.811 33.792C160.387 34.452 160.669 35.472 160.657 36.852V42H158.965V37.392C158.965 36.576 158.875 35.958 158.695 35.538C158.527 35.106 158.299 34.806 158.011 34.638C157.723 34.47 157.387 34.38 157.003 34.368C156.331 34.368 155.809 34.626 155.437 35.142C155.077 35.658 154.897 36.384 154.897 37.32V42H153.187V37.392C153.187 36.576 153.103 35.958 152.935 35.538C152.767 35.106 152.533 34.806 152.233 34.638C151.945 34.47 151.609 34.38 151.225 34.368C150.553 34.368 150.031 34.626 149.659 35.142C149.299 35.658 149.119 36.384 149.119 37.32V42H147.409Z" fill="#E1DFF3"/>
<defs>
<filter id="filter0_f_857_18057" x="0.5" y="0" width="198" height="72" filterUnits="userSpaceOnUse" color-interpolation-filters="sRGB">
<feFlood flood-opacity="0" result="BackgroundImageFix"/>
<feBlend mode="normal" in="SourceGraphic" in2="BackgroundImageFix" result="shape"/>
<feGaussianBlur stdDeviation="2" result="effect1_foregroundBlur_857_18057"/>
</filter>
</defs>
</svg>
