<svg width="175" height="72" viewBox="0 0 175 72" fill="none" xmlns="http://www.w3.org/2000/svg">
<g filter="url(#filter0_f_857_18100)">
<rect x="4.5" y="4" width="166" height="64" rx="32" fill="#2A2642"/>
</g>
<path fill-rule="evenodd" clip-rule="evenodd" d="M47 52C38.2 52 31 44.8001 31 35.9203C31.08 27.1205 38.2 19.9207 47.08 20.0007C55.88 20.0807 63 27.2005 63 36.1603C62.92 44.8801 55.8 52 47 52Z" fill="#EDF0F4"/>
<path fill-rule="evenodd" clip-rule="evenodd" d="M40.9807 29.5832C40.69 28.0665 41.8528 26.6665 43.3645 26.6665C44.7017 26.6665 45.8063 27.7748 45.8063 29.1165V32.1498C46.1552 32.1498 46.504 32.0915 46.8529 32.0915C47.2017 32.0915 47.4924 32.0915 47.8412 32.1498V29.1165C47.8412 27.7748 48.9459 26.6665 50.2831 26.6665C51.7948 26.6665 52.9576 28.0665 52.725 29.5832L52.0855 33.1415C54.3529 34.1332 56.0971 35.8832 56.0971 38.0415V39.3832C56.0971 41.1915 54.9343 42.7082 53.2483 43.6998C51.5622 44.7498 49.3529 45.3332 46.8529 45.3332C44.3528 45.3332 42.1435 44.7498 40.4575 43.6998C38.8295 42.7082 37.6667 41.1915 37.6667 39.3832V38.0415C37.6667 35.8832 39.3528 34.1332 41.6203 33.1415L40.9807 29.5832ZM51.2134 33.6082L51.9692 29.4082C52.1436 28.3582 51.3878 27.3665 50.2831 27.3665C49.3529 27.3665 48.5971 28.1248 48.5971 29.0582V32.9082C48.3645 32.8498 48.0738 32.8498 47.8412 32.8498C47.4924 32.8498 47.2017 32.7915 46.8529 32.7915C46.504 32.7915 46.1552 32.7915 45.8063 32.8498C45.5738 32.8498 45.2831 32.9082 45.0505 32.9082V29.1165C45.0505 28.1832 44.2947 27.4248 43.3645 27.4248C42.3179 27.4248 41.504 28.4165 41.7365 29.4665L42.4924 33.6665C40.0505 34.5998 38.4226 36.2332 38.4226 38.0998V39.4415C38.4226 42.2998 42.2017 44.6332 46.8529 44.6332C51.5041 44.6332 55.2832 42.2998 55.2832 39.4415V38.0998C55.3413 36.1748 53.7134 34.5415 51.2134 33.6082Z" fill="#633001"/>
<path d="M55.3297 39.367C55.3297 42.2615 51.5296 44.6243 46.8526 44.6243C42.1756 44.6243 38.3755 42.2615 38.3755 39.367V38.0083H55.3881V39.367H55.3297Z" fill="#FEDC90"/>
<path fill-rule="evenodd" clip-rule="evenodd" d="M41.6607 29.4126C41.426 28.3649 42.2473 27.3755 43.3033 27.3755C44.2419 27.3755 45.0046 28.1321 45.0046 29.0634V32.9048C45.5912 32.8466 46.1778 32.7884 46.8232 32.7884C47.4098 32.7884 47.9964 32.8466 48.5831 32.9048V29.0634C48.5831 28.1321 49.3457 27.3755 50.2843 27.3755C51.3403 27.3755 52.1616 28.3649 51.9856 29.4126L51.223 33.6032C53.6869 34.5345 55.3881 36.1641 55.3881 38.0266C55.3881 40.8786 51.575 43.2067 46.8818 43.2067C42.1887 43.2067 38.3755 40.8786 38.3755 38.0266C38.3755 36.1641 40.0181 34.5345 42.482 33.6032L41.6607 29.4126Z" fill="#D1884F"/>
<path d="M44.519 37.7722C44.519 38.5401 44.1055 39.1899 43.5738 39.1899C43.0422 39.1899 42.6287 38.5401 42.6287 37.7722C42.6287 37.0043 43.0422 36.3545 43.5738 36.3545C44.1055 36.3545 44.519 37.0043 44.519 37.7722Z" fill="#633001"/>
<path d="M51.1352 37.7722C51.1352 38.5401 50.7217 39.1899 50.19 39.1899C49.6584 39.1899 49.2449 38.5401 49.2449 37.7722C49.2449 37.0043 49.6584 36.3545 50.19 36.3545C50.7217 36.3545 51.1352 37.0043 51.1352 37.7722Z" fill="#633001"/>
<path d="M78.602 42V29.4H82.85C83.69 29.4 84.428 29.574 85.064 29.922C85.712 30.258 86.216 30.732 86.576 31.344C86.948 31.944 87.134 32.646 87.134 33.45C87.134 34.23 86.966 34.926 86.63 35.538C86.294 36.15 85.826 36.63 85.226 36.978C84.638 37.326 83.96 37.5 83.192 37.5H80.366V42H78.602ZM80.366 35.862H83.174C83.81 35.862 84.332 35.64 84.74 35.196C85.148 34.74 85.352 34.158 85.352 33.45C85.352 32.718 85.112 32.13 84.632 31.686C84.164 31.242 83.564 31.02 82.832 31.02H80.366V35.862ZM94.0851 42L94.0131 40.434V37.302C94.0131 36.642 93.9351 36.09 93.7791 35.646C93.6351 35.202 93.4071 34.866 93.0951 34.638C92.7951 34.41 92.3931 34.296 91.8891 34.296C91.4211 34.296 91.0131 34.392 90.6651 34.584C90.3291 34.776 90.0471 35.076 89.8191 35.484L88.3071 34.908C88.5231 34.5 88.7931 34.14 89.1171 33.828C89.4411 33.504 89.8311 33.252 90.2871 33.072C90.7431 32.88 91.2771 32.784 91.8891 32.784C92.7411 32.784 93.4491 32.952 94.0131 33.288C94.5771 33.624 94.9971 34.11 95.2731 34.746C95.5611 35.382 95.6991 36.168 95.6871 37.104L95.6691 42H94.0851ZM91.4391 42.216C90.3711 42.216 89.5371 41.976 88.9371 41.496C88.3491 41.004 88.0551 40.326 88.0551 39.462C88.0551 38.538 88.3611 37.836 88.9731 37.356C89.5971 36.864 90.4611 36.618 91.5651 36.618H94.0671V37.968H92.0331C91.2051 37.968 90.6231 38.1 90.2871 38.364C89.9511 38.616 89.7831 38.97 89.7831 39.426C89.7831 39.846 89.9391 40.176 90.2511 40.416C90.5751 40.644 91.0191 40.758 91.5831 40.758C92.0751 40.758 92.5011 40.656 92.8611 40.452C93.2211 40.236 93.5031 39.936 93.7071 39.552C93.9111 39.168 94.0131 38.73 94.0131 38.238H94.6071C94.6071 39.462 94.3431 40.434 93.8151 41.154C93.2991 41.862 92.5071 42.216 91.4391 42.216ZM97.8403 42V33H99.4423L99.5503 34.656V42H97.8403ZM104.068 42V37.392H105.778V42H104.068ZM104.068 37.392C104.068 36.576 103.972 35.958 103.78 35.538C103.6 35.106 103.342 34.806 103.006 34.638C102.682 34.47 102.304 34.38 101.872 34.368C101.14 34.368 100.57 34.626 100.162 35.142C99.7543 35.658 99.5503 36.384 99.5503 37.32H98.8123C98.8123 36.372 98.9503 35.562 99.2263 34.89C99.5143 34.206 99.9163 33.684 100.432 33.324C100.96 32.964 101.584 32.784 102.304 32.784C103.012 32.784 103.624 32.928 104.14 33.216C104.668 33.504 105.07 33.954 105.346 34.566C105.634 35.166 105.778 35.958 105.778 36.942V37.392H104.068ZM112.034 42.216C111.134 42.216 110.336 42.018 109.64 41.622C108.944 41.214 108.398 40.656 108.002 39.948C107.618 39.24 107.426 38.424 107.426 37.5C107.426 36.576 107.618 35.76 108.002 35.052C108.398 34.344 108.938 33.792 109.622 33.396C110.318 32.988 111.11 32.784 111.998 32.784C112.874 32.784 113.66 32.988 114.356 33.396C115.064 33.804 115.592 34.386 115.94 35.142L114.392 35.79C114.164 35.346 113.834 34.998 113.402 34.746C112.982 34.494 112.496 34.368 111.944 34.368C111.404 34.368 110.924 34.5 110.504 34.764C110.084 35.028 109.754 35.4 109.514 35.88C109.274 36.348 109.154 36.888 109.154 37.5C109.154 38.112 109.274 38.652 109.514 39.12C109.754 39.588 110.09 39.96 110.522 40.236C110.954 40.5 111.44 40.632 111.98 40.632C112.532 40.632 113.024 40.494 113.456 40.218C113.888 39.93 114.212 39.546 114.428 39.066L115.994 39.696C115.646 40.488 115.118 41.106 114.41 41.55C113.714 41.994 112.922 42.216 112.034 42.216ZM123.212 42L123.14 40.434V37.302C123.14 36.642 123.062 36.09 122.906 35.646C122.762 35.202 122.534 34.866 122.222 34.638C121.922 34.41 121.52 34.296 121.016 34.296C120.548 34.296 120.14 34.392 119.792 34.584C119.456 34.776 119.174 35.076 118.946 35.484L117.434 34.908C117.65 34.5 117.92 34.14 118.244 33.828C118.568 33.504 118.958 33.252 119.414 33.072C119.87 32.88 120.404 32.784 121.016 32.784C121.868 32.784 122.576 32.952 123.14 33.288C123.704 33.624 124.124 34.11 124.4 34.746C124.688 35.382 124.826 36.168 124.814 37.104L124.796 42H123.212ZM120.566 42.216C119.498 42.216 118.664 41.976 118.064 41.496C117.476 41.004 117.182 40.326 117.182 39.462C117.182 38.538 117.488 37.836 118.1 37.356C118.724 36.864 119.588 36.618 120.692 36.618H123.194V37.968H121.16C120.332 37.968 119.75 38.1 119.414 38.364C119.078 38.616 118.91 38.97 118.91 39.426C118.91 39.846 119.066 40.176 119.378 40.416C119.702 40.644 120.146 40.758 120.71 40.758C121.202 40.758 121.628 40.656 121.988 40.452C122.348 40.236 122.63 39.936 122.834 39.552C123.038 39.168 123.14 38.73 123.14 38.238H123.734C123.734 39.462 123.47 40.434 122.942 41.154C122.426 41.862 121.634 42.216 120.566 42.216ZM128.623 39.282L127.561 38.112L132.295 33H134.383L128.623 39.282ZM126.967 42V29.4H128.677V42H126.967ZM132.673 42L129.361 37.068L130.477 35.88L134.725 42H132.673ZM139.682 42.216C138.806 42.216 138.032 42.018 137.36 41.622C136.688 41.214 136.16 40.656 135.776 39.948C135.392 39.24 135.2 38.424 135.2 37.5C135.2 36.576 135.392 35.76 135.776 35.052C136.16 34.344 136.688 33.792 137.36 33.396C138.044 32.988 138.824 32.784 139.7 32.784C140.528 32.784 141.254 32.994 141.878 33.414C142.502 33.822 142.988 34.41 143.336 35.178C143.696 35.934 143.876 36.828 143.876 37.86H136.604L136.928 37.59C136.928 38.226 137.054 38.778 137.306 39.246C137.558 39.714 137.9 40.074 138.332 40.326C138.764 40.566 139.256 40.686 139.808 40.686C140.408 40.686 140.906 40.548 141.302 40.272C141.71 39.984 142.028 39.624 142.256 39.192L143.732 39.876C143.492 40.344 143.18 40.758 142.796 41.118C142.412 41.466 141.956 41.736 141.428 41.928C140.912 42.12 140.33 42.216 139.682 42.216ZM137.036 36.78L136.694 36.51H142.382L142.058 36.78C142.058 36.252 141.95 35.802 141.734 35.43C141.518 35.046 141.23 34.758 140.87 34.566C140.51 34.362 140.108 34.26 139.664 34.26C139.232 34.26 138.812 34.362 138.404 34.566C138.008 34.758 137.678 35.04 137.414 35.412C137.162 35.784 137.036 36.24 137.036 36.78Z" fill="#E1DFF3"/>
<defs>
<filter id="filter0_f_857_18100" x="0.5" y="0" width="174" height="72" filterUnits="userSpaceOnUse" color-interpolation-filters="sRGB">
<feFlood flood-opacity="0" result="BackgroundImageFix"/>
<feBlend mode="normal" in="SourceGraphic" in2="BackgroundImageFix" result="shape"/>
<feGaussianBlur stdDeviation="2" result="effect1_foregroundBlur_857_18100"/>
</filter>
</defs>
</svg>
