<svg width="174" height="72" viewBox="0 0 174 72" fill="none" xmlns="http://www.w3.org/2000/svg">
<g filter="url(#filter0_f_857_18125)">
<rect x="4" y="4" width="166" height="64" rx="32" fill="#2A2642"/>
</g>
<circle cx="43.5" cy="36" r="16" fill="#1B2B57"/>
<path d="M46.0177 37.5453L43.6023 38.9506L46.0177 34.4272V37.5453Z" fill="#DF3121"/>
<path d="M43.3828 39.9169V34.3395L49.7946 30.0796L46.3252 25.6001L53.1323 30.6505L46.3252 37.0184V34.8665L43.3828 39.9169Z" fill="#EFBF43"/>
<path d="M43.3828 46.285V41.1028L52.8688 31.8364L43.3828 46.285Z" fill="#EFBF43"/>
<path d="M40.7478 37.5453L43.1632 38.9506L40.7478 34.4272V37.5453Z" fill="#DF3121"/>
<path d="M43.3828 39.9169V34.3395L36.971 30.0796L40.4404 25.6001L33.6333 30.6505L40.4404 37.0184V34.8665L43.3828 39.9169Z" fill="#F8D749"/>
<path d="M43.3827 46.285V41.1028L33.8967 31.8364L43.3827 46.285Z" fill="#F8D749"/>
<path fill-rule="evenodd" clip-rule="evenodd" d="M44.4032 32.6605C44.962 32.3744 45.0094 32.2772 44.7925 31.8599C44.5741 31.4396 43.872 30.6306 43.599 30.4844C43.4019 30.379 43.3805 30.3888 43.0058 30.7558C42.5616 31.191 42.0099 31.9772 42.0099 32.175C42.0099 32.2485 42.0737 32.3663 42.1517 32.4369C42.6913 32.9252 43.6918 33.0246 44.4032 32.6605ZM41.7801 31.7731C41.7826 31.5185 42.0395 30.9934 42.4726 30.358L42.8542 29.7981L42.5914 29.5675C42.0694 29.1091 41.8515 29.1757 41.5417 29.8881C41.3209 30.3956 41.3025 31.0776 41.4958 31.5802C41.6459 31.9703 41.7773 32.0595 41.7801 31.7731ZM45.4073 31.6188C45.6395 31.1074 45.6131 30.3213 45.3461 29.794C45.0153 29.1404 44.8595 29.1118 44.297 29.6014L44.0762 29.7936L44.3934 30.2456C44.748 30.7512 45.1736 31.6053 45.1737 31.8117C45.1738 32.0303 45.2485 31.9686 45.4073 31.6188ZM43.7956 29.0934C43.9806 29.0094 44.2189 28.9386 44.325 28.936C44.5163 28.9312 44.516 28.9301 44.2863 28.8028C44.1281 28.715 43.8718 28.6743 43.4761 28.6743C43.0805 28.6743 42.8241 28.715 42.6658 28.8028C42.4353 28.9306 42.4351 28.9312 42.6273 28.94C42.775 28.9468 43.1547 29.0856 43.4484 29.2403C43.4543 29.2435 43.6106 29.1773 43.7956 29.0934Z" fill="#F5BB43"/>
<path d="M75.102 42V29.4H79.152C80.016 29.4 80.754 29.532 81.366 29.796C81.99 30.06 82.47 30.45 82.806 30.966C83.154 31.482 83.328 32.118 83.328 32.874C83.328 33.45 83.19 33.966 82.914 34.422C82.65 34.866 82.278 35.232 81.798 35.52C82.422 35.82 82.896 36.222 83.22 36.726C83.556 37.23 83.724 37.83 83.724 38.526C83.724 39.258 83.556 39.888 83.22 40.416C82.896 40.932 82.434 41.328 81.834 41.604C81.234 41.868 80.514 42 79.674 42H75.102ZM76.848 40.398H79.566C80.31 40.398 80.886 40.224 81.294 39.876C81.714 39.516 81.924 39.036 81.924 38.436C81.924 37.764 81.684 37.248 81.204 36.888C80.736 36.516 80.076 36.33 79.224 36.33H76.848V40.398ZM76.848 34.818H79.44C80.088 34.818 80.598 34.644 80.97 34.296C81.354 33.948 81.546 33.468 81.546 32.856C81.546 32.22 81.33 31.734 80.898 31.398C80.466 31.05 79.86 30.876 79.08 30.876H76.848V34.818ZM89.7599 42.216C88.8599 42.216 88.0679 42.018 87.3839 41.622C86.6999 41.214 86.1599 40.656 85.7639 39.948C85.3799 39.24 85.1879 38.424 85.1879 37.5C85.1879 36.576 85.3799 35.76 85.7639 35.052C86.1479 34.344 86.6819 33.792 87.3659 33.396C88.0499 32.988 88.8359 32.784 89.7239 32.784C90.6119 32.784 91.3979 32.988 92.0819 33.396C92.7659 33.792 93.2999 34.344 93.6839 35.052C94.0679 35.76 94.2599 36.576 94.2599 37.5C94.2599 38.424 94.0679 39.24 93.6839 39.948C93.2999 40.656 92.7659 41.214 92.0819 41.622C91.4099 42.018 90.6359 42.216 89.7599 42.216ZM89.7599 40.65C90.2999 40.65 90.7799 40.518 91.1999 40.254C91.6199 39.978 91.9439 39.606 92.1719 39.138C92.4119 38.67 92.5319 38.124 92.5319 37.5C92.5319 36.876 92.4119 36.33 92.1719 35.862C91.9439 35.394 91.6139 35.028 91.1819 34.764C90.7499 34.488 90.2639 34.35 89.7239 34.35C89.1719 34.35 88.6859 34.488 88.2659 34.764C87.8459 35.028 87.5159 35.394 87.2759 35.862C87.0359 36.33 86.9159 36.876 86.9159 37.5C86.9159 38.124 87.0359 38.67 87.2759 39.138C87.5159 39.606 87.8519 39.978 88.2839 40.254C88.7159 40.518 89.2079 40.65 89.7599 40.65ZM99.6073 42.216C98.7073 42.216 98.0113 41.988 97.5193 41.532C97.0273 41.064 96.7813 40.398 96.7813 39.534V30.192H98.4913V39.282C98.4913 39.726 98.5993 40.068 98.8153 40.308C99.0433 40.536 99.3673 40.65 99.7873 40.65C99.9073 40.65 100.039 40.626 100.183 40.578C100.327 40.53 100.501 40.434 100.705 40.29L101.353 41.622C101.041 41.826 100.741 41.976 100.453 42.072C100.177 42.168 99.8953 42.216 99.6073 42.216ZM95.2513 34.476V33H101.047V34.476H95.2513ZM102.034 42L106.912 35.088L110.89 29.4H113.014L108.226 36.006L104.194 42H102.034ZM110.89 42L106.858 36.006L102.07 29.4H104.194L108.19 35.088L113.05 42H110.89ZM118.062 42.216C117.162 42.216 116.364 42.018 115.668 41.622C114.972 41.214 114.426 40.656 114.03 39.948C113.646 39.24 113.454 38.424 113.454 37.5C113.454 36.576 113.646 35.76 114.03 35.052C114.426 34.344 114.966 33.792 115.65 33.396C116.346 32.988 117.138 32.784 118.026 32.784C118.902 32.784 119.688 32.988 120.384 33.396C121.092 33.804 121.62 34.386 121.968 35.142L120.42 35.79C120.192 35.346 119.862 34.998 119.43 34.746C119.01 34.494 118.524 34.368 117.972 34.368C117.432 34.368 116.952 34.5 116.532 34.764C116.112 35.028 115.782 35.4 115.542 35.88C115.302 36.348 115.182 36.888 115.182 37.5C115.182 38.112 115.302 38.652 115.542 39.12C115.782 39.588 116.118 39.96 116.55 40.236C116.982 40.5 117.468 40.632 118.008 40.632C118.56 40.632 119.052 40.494 119.484 40.218C119.916 39.93 120.24 39.546 120.456 39.066L122.022 39.696C121.674 40.488 121.146 41.106 120.438 41.55C119.742 41.994 118.95 42.216 118.062 42.216ZM127.781 42.216C126.881 42.216 126.089 42.018 125.405 41.622C124.721 41.214 124.181 40.656 123.785 39.948C123.401 39.24 123.209 38.424 123.209 37.5C123.209 36.576 123.401 35.76 123.785 35.052C124.169 34.344 124.703 33.792 125.387 33.396C126.071 32.988 126.857 32.784 127.745 32.784C128.633 32.784 129.419 32.988 130.103 33.396C130.787 33.792 131.321 34.344 131.705 35.052C132.089 35.76 132.281 36.576 132.281 37.5C132.281 38.424 132.089 39.24 131.705 39.948C131.321 40.656 130.787 41.214 130.103 41.622C129.431 42.018 128.657 42.216 127.781 42.216ZM127.781 40.65C128.321 40.65 128.801 40.518 129.221 40.254C129.641 39.978 129.965 39.606 130.193 39.138C130.433 38.67 130.553 38.124 130.553 37.5C130.553 36.876 130.433 36.33 130.193 35.862C129.965 35.394 129.635 35.028 129.203 34.764C128.771 34.488 128.285 34.35 127.745 34.35C127.193 34.35 126.707 34.488 126.287 34.764C125.867 35.028 125.537 35.394 125.297 35.862C125.057 36.33 124.937 36.876 124.937 37.5C124.937 38.124 125.057 38.67 125.297 39.138C125.537 39.606 125.873 39.978 126.305 40.254C126.737 40.518 127.229 40.65 127.781 40.65ZM134.263 42V33H135.973V42H134.263ZM135.127 31.092C134.851 31.092 134.611 30.99 134.407 30.786C134.203 30.57 134.101 30.324 134.101 30.048C134.101 29.76 134.203 29.52 134.407 29.328C134.611 29.124 134.851 29.022 135.127 29.022C135.415 29.022 135.655 29.124 135.847 29.328C136.051 29.52 136.153 29.76 136.153 30.048C136.153 30.324 136.051 30.57 135.847 30.786C135.655 30.99 135.415 31.092 135.127 31.092ZM138.479 42V33H140.081L140.189 34.656V42H138.479ZM144.707 42V37.392H146.417V42H144.707ZM144.707 37.392C144.707 36.576 144.611 35.958 144.419 35.538C144.239 35.106 143.981 34.806 143.645 34.638C143.321 34.47 142.943 34.38 142.511 34.368C141.779 34.368 141.209 34.626 140.801 35.142C140.393 35.658 140.189 36.384 140.189 37.32H139.451C139.451 36.372 139.589 35.562 139.865 34.89C140.153 34.206 140.555 33.684 141.071 33.324C141.599 32.964 142.223 32.784 142.943 32.784C143.651 32.784 144.263 32.928 144.779 33.216C145.307 33.504 145.709 33.954 145.985 34.566C146.273 35.166 146.417 35.958 146.417 36.942V37.392H144.707Z" fill="#E1DFF3"/>
<defs>
<filter id="filter0_f_857_18125" x="0" y="0" width="174" height="72" filterUnits="userSpaceOnUse" color-interpolation-filters="sRGB">
<feFlood flood-opacity="0" result="BackgroundImageFix"/>
<feBlend mode="normal" in="SourceGraphic" in2="BackgroundImageFix" result="shape"/>
<feGaussianBlur stdDeviation="2" result="effect1_foregroundBlur_857_18125"/>
</filter>
</defs>
</svg>
