<svg width="175" height="72" viewBox="0 0 175 72" fill="none" xmlns="http://www.w3.org/2000/svg">
<g filter="url(#filter0_f_857_18106)">
<rect x="4.5" y="4" width="166" height="64" rx="32" fill="#2A2642"/>
</g>
<circle cx="49" cy="36" r="16" fill="#EDF0F4"/>
<path d="M42.2537 40.27L49.1101 33.4136L51.1968 35.5003L46.4271 40.27L49.1101 42.9529L53.8797 38.1832L55.9665 40.27L49.1101 47.1264L42.2537 40.27Z" fill="#1A1A1A"/>
<path d="M40.2 33.9438V38.1835L49.0768 29.3066L57.9537 38.1835V33.9438L49.0768 25.0669L40.2 33.9438Z" fill="#57A0D6"/>
<path d="M85.966 42.216C84.766 42.216 83.698 41.94 82.762 41.388C81.826 40.824 81.094 40.056 80.566 39.084C80.038 38.1 79.774 36.972 79.774 35.7C79.774 34.428 80.038 33.306 80.566 32.334C81.094 31.35 81.82 30.582 82.744 30.03C83.668 29.466 84.73 29.184 85.93 29.184C86.71 29.184 87.454 29.328 88.162 29.616C88.87 29.892 89.5 30.282 90.052 30.786C90.616 31.278 91.048 31.854 91.348 32.514L89.764 33.234C89.536 32.742 89.224 32.316 88.828 31.956C88.432 31.596 87.982 31.314 87.478 31.11C86.986 30.906 86.47 30.804 85.93 30.804C85.09 30.804 84.34 31.014 83.68 31.434C83.02 31.854 82.504 32.43 82.132 33.162C81.76 33.894 81.574 34.74 81.574 35.7C81.574 36.66 81.76 37.512 82.132 38.256C82.516 39 83.038 39.582 83.698 40.002C84.37 40.41 85.132 40.614 85.984 40.614C86.536 40.614 87.058 40.506 87.55 40.29C88.042 40.062 88.48 39.756 88.864 39.372C89.26 38.976 89.578 38.526 89.818 38.022L91.402 38.724C91.102 39.408 90.676 40.014 90.124 40.542C89.572 41.07 88.936 41.484 88.216 41.784C87.508 42.072 86.758 42.216 85.966 42.216ZM97.2462 42.216C96.3462 42.216 95.5542 42.018 94.8702 41.622C94.1862 41.214 93.6462 40.656 93.2502 39.948C92.8662 39.24 92.6742 38.424 92.6742 37.5C92.6742 36.576 92.8662 35.76 93.2502 35.052C93.6342 34.344 94.1682 33.792 94.8522 33.396C95.5362 32.988 96.3222 32.784 97.2102 32.784C98.0982 32.784 98.8842 32.988 99.5682 33.396C100.252 33.792 100.786 34.344 101.17 35.052C101.554 35.76 101.746 36.576 101.746 37.5C101.746 38.424 101.554 39.24 101.17 39.948C100.786 40.656 100.252 41.214 99.5682 41.622C98.8962 42.018 98.1222 42.216 97.2462 42.216ZM97.2462 40.65C97.7862 40.65 98.2662 40.518 98.6862 40.254C99.1062 39.978 99.4302 39.606 99.6582 39.138C99.8982 38.67 100.018 38.124 100.018 37.5C100.018 36.876 99.8982 36.33 99.6582 35.862C99.4302 35.394 99.1002 35.028 98.6682 34.764C98.2362 34.488 97.7502 34.35 97.2102 34.35C96.6582 34.35 96.1722 34.488 95.7522 34.764C95.3322 35.028 95.0022 35.394 94.7622 35.862C94.5222 36.33 94.4022 36.876 94.4022 37.5C94.4022 38.124 94.5222 38.67 94.7622 39.138C95.0022 39.606 95.3382 39.978 95.7702 40.254C96.2022 40.518 96.6942 40.65 97.2462 40.65ZM103.62 42V33H105.222L105.33 34.656V42H103.62ZM109.848 42V37.392H111.558V42H109.848ZM109.848 37.392C109.848 36.576 109.752 35.958 109.56 35.538C109.38 35.106 109.122 34.806 108.786 34.638C108.462 34.47 108.084 34.38 107.652 34.368C106.92 34.368 106.35 34.626 105.942 35.142C105.534 35.658 105.33 36.384 105.33 37.32H104.592C104.592 36.372 104.73 35.562 105.006 34.89C105.294 34.206 105.696 33.684 106.212 33.324C106.74 32.964 107.364 32.784 108.084 32.784C108.792 32.784 109.404 32.928 109.92 33.216C110.448 33.504 110.85 33.954 111.126 34.566C111.414 35.166 111.558 35.958 111.558 36.942V37.392H109.848ZM114.609 42V32.01C114.609 31.062 114.837 30.348 115.293 29.868C115.749 29.376 116.439 29.13 117.363 29.13C117.639 29.13 117.939 29.178 118.263 29.274C118.587 29.358 118.917 29.478 119.253 29.634L118.623 30.948C118.371 30.828 118.149 30.744 117.957 30.696C117.777 30.636 117.621 30.606 117.489 30.606C117.093 30.606 116.799 30.738 116.607 31.002C116.415 31.254 116.319 31.65 116.319 32.19V42H114.609ZM113.007 34.422V33H118.803V34.422H113.007ZM120.477 42V29.4H122.187V42H120.477ZM130.675 42L130.567 40.344V33H132.259V42H130.675ZM124.339 37.608V33H126.049V37.608H124.339ZM126.049 37.608C126.049 38.412 126.139 39.03 126.319 39.462C126.511 39.894 126.775 40.194 127.111 40.362C127.447 40.53 127.825 40.62 128.245 40.632C128.977 40.632 129.547 40.374 129.955 39.858C130.363 39.342 130.567 38.616 130.567 37.68H131.305C131.305 38.628 131.161 39.444 130.873 40.128C130.597 40.8 130.201 41.316 129.685 41.676C129.169 42.036 128.539 42.216 127.795 42.216C127.099 42.216 126.487 42.072 125.959 41.784C125.443 41.496 125.041 41.046 124.753 40.434C124.477 39.822 124.339 39.03 124.339 38.058V37.608H126.049ZM133.637 42L137.327 36.834L139.901 33H141.917L138.443 37.914L135.689 42H133.637ZM140.099 42L137.381 37.914L133.871 33H135.887L138.479 36.834L142.133 42H140.099Z" fill="#E1DFF3"/>
<defs>
<filter id="filter0_f_857_18106" x="0.5" y="0" width="174" height="72" filterUnits="userSpaceOnUse" color-interpolation-filters="sRGB">
<feFlood flood-opacity="0" result="BackgroundImageFix"/>
<feBlend mode="normal" in="SourceGraphic" in2="BackgroundImageFix" result="shape"/>
<feGaussianBlur stdDeviation="2" result="effect1_foregroundBlur_857_18106"/>
</filter>
</defs>
</svg>
