<svg width="175" height="72" viewBox="0 0 175 72" fill="none" xmlns="http://www.w3.org/2000/svg">
<g filter="url(#filter0_f_857_18094)">
<rect x="4.5" y="4" width="166" height="64" rx="32" fill="#2A2642"/>
</g>
<path fill-rule="evenodd" clip-rule="evenodd" d="M43.5 52C34.7 52 27.5 44.8001 27.5 35.9203C27.58 27.1205 34.7 19.9207 43.58 20.0007C52.38 20.0807 59.5 27.2005 59.5 36.1603C59.42 44.8801 52.3 52 43.5 52Z" fill="#E42D04"/>
<path fill-rule="evenodd" clip-rule="evenodd" d="M43.8116 47.7334C44.9729 47.7334 47.9519 47.2098 50.5775 45.1157C53.5966 42.7076 53.8811 41.3646 54.0646 40.4987C54.0805 40.4234 54.0957 40.3516 54.112 40.283C54.1425 40.1532 54.1604 39.9771 54.1666 39.7676C53.5324 39.6649 52.6435 39.6062 51.6062 39.7293C49.9097 39.9306 48.5767 41.0885 48.1223 41.6422C47.8698 40.3837 46.6378 37.8667 43.7295 37.8667C40.8212 37.8667 39.2526 40.3837 38.8318 41.6422C38.5625 41.1723 37.5594 40.132 35.7013 39.7293C34.5524 39.4803 33.5503 39.6033 32.8333 39.8128C32.8899 40.7487 33.1975 41.7468 34.0162 42.8C35.4249 44.6123 37.6107 45.7313 38.5859 46.2306C38.6942 46.2861 38.7876 46.3339 38.8634 46.3742C39.6208 46.7769 41.6909 47.7334 43.8116 47.7334Z" fill="white"/>
<path fill-rule="evenodd" clip-rule="evenodd" d="M54.1642 39.7307C53.5304 39.6283 52.642 39.5696 51.6053 39.6924C49.9098 39.8932 48.5776 41.0477 48.1234 41.5999C47.8711 40.345 46.6398 37.8352 43.7332 37.8352C40.8265 37.8352 39.2588 40.345 38.8383 41.5999C38.5692 41.1313 37.5666 40.094 35.7096 39.6924C34.5614 39.4441 33.5598 39.5668 32.8432 39.7758C32.7916 38.9248 32.9486 38.1256 33.1171 37.3834C33.3997 36.1385 34.1096 34.4888 34.4291 33.8195C34.1432 33.1335 33.4805 31.1892 33.1171 28.9003C32.7538 26.6113 33.3694 25.0686 33.7227 24.5834C34.2946 24.734 35.6604 25.2058 36.5486 25.8885C37.4367 26.5712 38.8026 28.0804 39.3745 28.7497C40.1146 28.5489 42.0187 28.1473 43.7143 28.1473C45.4098 28.1473 47.0448 28.5489 47.6504 28.7497C48.155 28.1473 49.3964 26.7318 50.3249 25.8885C51.2534 25.0452 52.7638 24.6336 53.4031 24.5332C53.5712 24.7507 53.9279 25.3865 54.0086 26.1897C54.1096 27.1936 53.8068 29.3018 53.4031 30.7073C53.0801 31.8317 52.6629 33.1502 52.4948 33.6689C52.5788 33.8529 52.8682 34.4519 53.3526 35.3756C53.8663 36.355 54.1984 38.5625 54.1642 39.7307Z" fill="#FFAA35"/>
<path d="M45.8833 44.1975C45.7633 44.3581 45.6333 44.6659 45.5833 44.7996V44.7495L45.4333 43.5452C45.15 43.5786 44.4133 43.6456 43.7333 43.6456C43.0533 43.6456 42.2499 43.5786 41.9333 43.5452L41.8833 44.7495C41.8499 44.6993 41.7633 44.5588 41.6833 44.3982C41.5833 44.1975 41.2333 43.8964 41.2333 43.7459C41.2333 43.6255 41.0666 43.3612 40.9833 43.2441L40.8333 43.0434H41.7333L41.9333 43.194C42.0999 43.1772 42.5233 43.1638 42.8833 43.2441C43.2433 43.3244 43.4666 43.01 43.5333 42.8427V42.0399C43.3833 41.9395 43.0133 41.7087 42.7333 41.5883C42.3833 41.4377 42.0333 40.8356 42.1333 40.2335C42.2333 39.6313 42.5333 39.4306 42.7333 39.4808C42.9333 39.531 44.2333 39.4306 44.4333 39.4808C44.6333 39.531 44.9833 39.6313 45.1333 39.8822C45.2833 40.1331 45.1833 41.1367 44.8833 41.4879C44.6433 41.7689 44.1833 41.9729 43.9833 42.0399V42.8427C43.9833 42.9431 44.3333 43.194 44.3833 43.2441C44.4333 43.2943 45.1833 43.2441 45.3333 43.2441C45.4533 43.2441 45.55 43.1438 45.5833 43.0936H46.4333V43.2943C46.4333 43.3947 46.2833 43.8463 46.2333 43.8964C46.1833 43.9466 46.0333 43.9968 45.8833 44.1975Z" fill="black"/>
<path d="M44.2746 43.8667L43.7666 44.2667L43.3603 43.8667L43.0047 44.0445L42.7 43.7334H44.8333L44.5285 44.089L44.2746 43.8667Z" fill="black"/>
<path d="M38.808 35.6612C38.2129 35.4151 37.5682 35.251 37.3203 35.1997C37.2541 35.2339 37.1219 35.3433 37.1219 35.5074C37.1219 35.7125 37.0723 35.9177 37.1219 36.3279C37.1715 36.7382 37.5682 36.9946 38.2625 37.3023C38.9567 37.61 40.1469 37.8664 40.9899 37.8664C41.8329 37.8664 41.0395 36.9946 40.742 36.7895C40.4444 36.5843 39.5518 35.9689 38.808 35.6612Z" fill="black"/>
<path d="M39.6225 34.3005C39.1778 34.38 38.5613 34.3999 38.3086 34.3999C38.0559 34.3668 37.5203 34.211 37.399 33.8531C37.2474 33.4058 37.6516 32.9087 38.157 32.6602C38.6624 32.4117 39.3193 32.5111 39.7236 33.1076C40.1279 33.704 40.1784 34.2011 39.6225 34.3005Z" fill="white"/>
<path d="M48.7251 35.3946C49.3202 35.1485 49.9648 34.9844 50.2128 34.9331C50.2789 34.9673 50.4111 35.0767 50.4111 35.2408C50.4111 35.4459 50.4607 35.6511 50.4111 36.0613C50.3615 36.4716 49.9648 36.728 49.2706 37.0357C48.5763 37.3434 47.3861 37.5998 46.5431 37.5998C45.7001 37.5998 46.4935 36.728 46.7911 36.5228C47.0886 36.3177 47.9812 35.7023 48.7251 35.3946Z" fill="black"/>
<path d="M47.1108 34.3005C47.5555 34.38 48.172 34.3999 48.4247 34.3999C48.6774 34.3667 49.2131 34.211 49.3343 33.8531C49.486 33.4058 49.0817 32.9087 48.5763 32.6602C48.071 32.4117 47.414 32.5111 47.0097 33.1076C46.6054 33.704 46.5549 34.2011 47.1108 34.3005Z" fill="white"/>
<path d="M36.1477 30.5799C35.7843 30.9768 35.0878 31.8698 34.785 32.2667C34.5831 31.8367 34.1389 30.689 33.9774 29.538C33.8159 28.387 33.9438 26.6109 34.0279 25.8667C34.2466 25.8832 34.8859 26.0651 35.6935 26.6605C36.501 27.2558 37.6787 28.3639 38.1666 28.8434C37.645 29.2569 36.5111 30.183 36.1477 30.5799Z" fill="#FF8C30"/>
<path fill-rule="evenodd" clip-rule="evenodd" d="M33.8999 26.8117C34.6936 27.143 35.7384 27.6493 36.1763 28.1069C36.6204 28.5711 37.0112 29.1856 37.2431 29.6C37.5914 29.3113 37.9374 29.0339 38.1666 28.8536C37.6732 28.3724 36.4825 27.2606 35.6659 26.6632C34.8494 26.0658 34.203 25.8833 33.9818 25.8667C33.9554 26.0985 33.9248 26.4301 33.8999 26.8117Z" fill="#FF9A32"/>
<path d="M50.5855 30.5799C50.9489 30.9768 51.6454 31.8698 51.9483 32.2667C52.1501 31.8367 52.5943 30.689 52.7558 29.538C52.9173 28.387 52.7894 26.6109 52.7053 25.8667C52.4866 25.8832 51.8473 26.0651 51.0398 26.6605C50.2322 27.2558 49.0545 28.3639 48.5667 28.8434C49.0882 29.2569 50.2221 30.183 50.5855 30.5799Z" fill="#FF8C30"/>
<path fill-rule="evenodd" clip-rule="evenodd" d="M52.8333 26.8117C52.0395 27.143 50.9948 27.6493 50.5569 28.1069C50.1127 28.5711 49.722 29.1856 49.4901 29.6C49.1419 29.3113 48.7958 29.0339 48.5667 28.8536C49.0599 28.3724 50.2507 27.2606 51.0673 26.6632C51.8838 26.0658 52.5302 25.8833 52.7514 25.8667C52.7778 26.0985 52.8084 26.4301 52.8333 26.8117Z" fill="#FF9A32"/>
<path d="M79.17 42.216C78.498 42.216 77.886 42.138 77.334 41.982C76.794 41.826 76.32 41.616 75.912 41.352C75.516 41.076 75.186 40.77 74.922 40.434C74.658 40.098 74.472 39.744 74.364 39.372L76.074 38.814C76.254 39.306 76.596 39.732 77.1 40.092C77.604 40.452 78.222 40.638 78.954 40.65C79.842 40.65 80.538 40.476 81.042 40.128C81.558 39.768 81.816 39.294 81.816 38.706C81.816 38.166 81.594 37.728 81.15 37.392C80.706 37.044 80.118 36.78 79.386 36.6L77.928 36.222C77.352 36.066 76.824 35.844 76.344 35.556C75.876 35.268 75.504 34.902 75.228 34.458C74.952 34.014 74.814 33.48 74.814 32.856C74.814 31.704 75.186 30.804 75.93 30.156C76.686 29.508 77.772 29.184 79.188 29.184C80.004 29.184 80.712 29.316 81.312 29.58C81.912 29.832 82.404 30.168 82.788 30.588C83.184 31.008 83.466 31.47 83.634 31.974L81.924 32.55C81.72 32.01 81.372 31.578 80.88 31.254C80.388 30.918 79.782 30.75 79.062 30.75C78.306 30.75 77.706 30.93 77.262 31.29C76.83 31.65 76.614 32.142 76.614 32.766C76.614 33.294 76.782 33.702 77.118 33.99C77.466 34.266 77.928 34.476 78.504 34.62L79.962 34.98C81.138 35.268 82.044 35.748 82.68 36.42C83.328 37.08 83.652 37.806 83.652 38.598C83.652 39.282 83.478 39.9 83.13 40.452C82.794 40.992 82.29 41.424 81.618 41.748C80.958 42.06 80.142 42.216 79.17 42.216ZM85.7275 42V29.4H87.4195V42H85.7275ZM91.9555 42V37.392H93.6475V42H91.9555ZM91.9555 37.392C91.9555 36.576 91.8595 35.958 91.6675 35.538C91.4755 35.106 91.2115 34.806 90.8755 34.638C90.5515 34.47 90.1795 34.38 89.7595 34.368C89.0155 34.368 88.4395 34.626 88.0315 35.142C87.6235 35.658 87.4195 36.384 87.4195 37.32H86.6995C86.6995 36.372 86.8375 35.562 87.1135 34.89C87.4015 34.206 87.8035 33.684 88.3195 33.324C88.8475 32.964 89.4715 32.784 90.1915 32.784C90.8995 32.784 91.5115 32.928 92.0275 33.216C92.5435 33.504 92.9455 33.954 93.2335 34.566C93.5215 35.166 93.6595 35.958 93.6475 36.942V37.392H91.9555ZM95.9073 42V33H97.6173V42H95.9073ZM96.7713 31.092C96.4953 31.092 96.2553 30.99 96.0513 30.786C95.8473 30.57 95.7453 30.324 95.7453 30.048C95.7453 29.76 95.8473 29.52 96.0513 29.328C96.2553 29.124 96.4953 29.022 96.7713 29.022C97.0593 29.022 97.2993 29.124 97.4913 29.328C97.6953 29.52 97.7973 29.76 97.7973 30.048C97.7973 30.324 97.6953 30.57 97.4913 30.786C97.2993 30.99 97.0593 31.092 96.7713 31.092ZM100.124 42V29.4H101.834V40.326L101.744 42H100.124ZM104.786 42.216C104.03 42.216 103.37 42.018 102.806 41.622C102.254 41.226 101.828 40.674 101.528 39.966C101.228 39.258 101.078 38.436 101.078 37.5C101.078 36.552 101.228 35.73 101.528 35.034C101.828 34.326 102.254 33.774 102.806 33.378C103.37 32.982 104.03 32.784 104.786 32.784C105.59 32.784 106.298 32.982 106.91 33.378C107.522 33.774 107.996 34.326 108.332 35.034C108.68 35.73 108.854 36.552 108.854 37.5C108.854 38.436 108.68 39.258 108.332 39.966C107.996 40.674 107.522 41.226 106.91 41.622C106.298 42.018 105.59 42.216 104.786 42.216ZM104.372 40.668C104.912 40.668 105.386 40.536 105.794 40.272C106.202 39.996 106.52 39.624 106.748 39.156C106.988 38.676 107.108 38.124 107.108 37.5C107.108 36.876 106.994 36.33 106.766 35.862C106.538 35.382 106.22 35.01 105.812 34.746C105.404 34.47 104.93 34.332 104.39 34.332C103.898 34.332 103.454 34.47 103.058 34.746C102.674 35.01 102.374 35.382 102.158 35.862C101.942 36.342 101.834 36.888 101.834 37.5C101.834 38.124 101.942 38.676 102.158 39.156C102.374 39.624 102.674 39.996 103.058 40.272C103.442 40.536 103.88 40.668 104.372 40.668ZM116.249 42L116.177 40.434V37.302C116.177 36.642 116.099 36.09 115.943 35.646C115.799 35.202 115.571 34.866 115.259 34.638C114.959 34.41 114.557 34.296 114.053 34.296C113.585 34.296 113.177 34.392 112.829 34.584C112.493 34.776 112.211 35.076 111.983 35.484L110.471 34.908C110.687 34.5 110.957 34.14 111.281 33.828C111.605 33.504 111.995 33.252 112.451 33.072C112.907 32.88 113.441 32.784 114.053 32.784C114.905 32.784 115.613 32.952 116.177 33.288C116.741 33.624 117.161 34.11 117.437 34.746C117.725 35.382 117.863 36.168 117.851 37.104L117.833 42H116.249ZM113.603 42.216C112.535 42.216 111.701 41.976 111.101 41.496C110.513 41.004 110.219 40.326 110.219 39.462C110.219 38.538 110.525 37.836 111.137 37.356C111.761 36.864 112.625 36.618 113.729 36.618H116.231V37.968H114.197C113.369 37.968 112.787 38.1 112.451 38.364C112.115 38.616 111.947 38.97 111.947 39.426C111.947 39.846 112.103 40.176 112.415 40.416C112.739 40.644 113.183 40.758 113.747 40.758C114.239 40.758 114.665 40.656 115.025 40.452C115.385 40.236 115.667 39.936 115.871 39.552C116.075 39.168 116.177 38.73 116.177 38.238H116.771C116.771 39.462 116.507 40.434 115.979 41.154C115.463 41.862 114.671 42.216 113.603 42.216ZM124.813 42V29.4H126.577V42H124.813ZM129.374 42V33H130.976L131.084 34.656V42H129.374ZM135.602 42V37.392H137.312V42H135.602ZM135.602 37.392C135.602 36.576 135.506 35.958 135.314 35.538C135.134 35.106 134.876 34.806 134.54 34.638C134.216 34.47 133.838 34.38 133.406 34.368C132.674 34.368 132.104 34.626 131.696 35.142C131.288 35.658 131.084 36.384 131.084 37.32H130.346C130.346 36.372 130.484 35.562 130.76 34.89C131.048 34.206 131.45 33.684 131.966 33.324C132.494 32.964 133.118 32.784 133.838 32.784C134.546 32.784 135.158 32.928 135.674 33.216C136.202 33.504 136.604 33.954 136.88 34.566C137.168 35.166 137.312 35.958 137.312 36.942V37.392H135.602ZM145.583 42L145.475 40.344V33H147.167V42H145.583ZM139.247 37.608V33H140.957V37.608H139.247ZM140.957 37.608C140.957 38.412 141.047 39.03 141.227 39.462C141.419 39.894 141.683 40.194 142.019 40.362C142.355 40.53 142.733 40.62 143.153 40.632C143.885 40.632 144.455 40.374 144.863 39.858C145.271 39.342 145.475 38.616 145.475 37.68H146.213C146.213 38.628 146.069 39.444 145.781 40.128C145.505 40.8 145.109 41.316 144.593 41.676C144.077 42.036 143.447 42.216 142.703 42.216C142.007 42.216 141.395 42.072 140.867 41.784C140.351 41.496 139.949 41.046 139.661 40.434C139.385 39.822 139.247 39.03 139.247 38.058V37.608H140.957Z" fill="#E1DFF3"/>
<defs>
<filter id="filter0_f_857_18094" x="0.5" y="0" width="174" height="72" filterUnits="userSpaceOnUse" color-interpolation-filters="sRGB">
<feFlood flood-opacity="0" result="BackgroundImageFix"/>
<feBlend mode="normal" in="SourceGraphic" in2="BackgroundImageFix" result="shape"/>
<feGaussianBlur stdDeviation="2" result="effect1_foregroundBlur_857_18094"/>
</filter>
</defs>
</svg>
