<svg width="175" height="72" viewBox="0 0 175 72" fill="none" xmlns="http://www.w3.org/2000/svg">
<g filter="url(#filter0_f_857_18088)">
<rect x="4.5" y="4" width="166" height="64" rx="32" fill="#2A2642"/>
</g>
<circle cx="60" cy="36" r="16" fill="#EDF0F4"/>
<path d="M54.5205 37.1157L55.0672 33.0079L50.325 29.7158L54.6579 31.1835L55.6812 29.6134L59.4178 27.2949L67.6539 31.8326L68.0808 38.7559L64.4115 43.8549L61.5111 44.2993L63.011 41.554V38.9109L61.9205 36.8468L60.8124 36.1129L59.1078 37.8701V39.7296L57.7775 40.9751L56.0876 41.1797L55.3392 41.6037L54.1112 41.2119L53.5995 39.3699L54.5205 38.0747V37.1157Z" fill="white"/>
<path d="M62.093 29.6805C61.1895 29.4934 60.2013 29.5431 60.2013 29.5431C60.2013 29.5431 59.8768 31.043 57.8652 31.4377C57.8799 31.4377 60.5229 32.3411 62.093 29.6805Z" fill="#94A6C3"/>
<path d="M62.9117 43.2906C64.0022 42.4368 64.8209 41.2615 65.198 39.9312C65.2156 39.8815 65.3676 39.7938 65.4699 39.7265C65.6395 39.6242 65.812 39.5394 65.8442 39.402C65.9114 39.0102 65.9465 38.6009 65.9465 38.1916C65.9465 38.0395 65.7915 37.8846 65.6395 37.7325C65.5196 37.6302 65.3997 37.5103 65.3997 37.4256C65.2302 35.8731 64.5139 34.4229 63.3707 33.3674L63.2508 33.4873C64.3589 34.5281 65.0752 35.9432 65.2302 37.4431C65.2477 37.5805 65.3822 37.715 65.5196 37.8524C65.6395 37.9547 65.7769 38.1097 65.7769 38.177C65.7769 38.5687 65.7418 38.9605 65.6746 39.3523C65.657 39.4195 65.505 39.4897 65.3851 39.557C65.2156 39.6417 65.0606 39.7265 65.0284 39.8639C64.6191 41.3141 63.6806 42.5772 62.4351 43.3958C62.6573 42.9192 63.3561 41.3667 63.7303 40.5803L63.6631 38.0571L61.4966 35.9608L60.2686 36.1303L58.9208 38.3144C58.9208 38.3144 59.5523 39.1155 58.6635 40.054C57.7951 40.975 57.111 41.1796 57.111 41.1796L56.4794 40.8375C56.6666 40.5978 57.0437 40.2411 57.3332 40.0014C57.8273 39.592 58.3214 39.557 58.3214 39.1155C58.3419 38.1916 57.3507 38.4459 57.3507 38.4459L56.9911 38.788L56.8391 40.0511L56.0906 40.9896L56.0058 40.972L54.7778 40.7001C54.7778 40.7001 55.5292 40.3084 55.6491 39.8639C55.769 39.4371 55.4094 38.022 55.3918 37.9372C55.4094 37.9547 55.7514 38.2442 55.9035 38.7208C56.1754 37.9694 56.535 37.2531 56.6373 37.1858C56.7397 37.1186 58.1197 36.3847 58.1197 36.3847L57.6606 37.5951L58.0027 37.408L58.8214 35.3965C58.8214 35.3965 59.6225 35.0047 60.2189 35.0047C61.2919 34.9872 62.8795 33.6744 62.1632 31.3208C62.3678 31.4056 65.9143 33.1803 66.5283 36.6595C66.9873 39.3348 65.4699 41.8404 62.9117 43.2906Z" fill="#94A6C3"/>
<path d="M58.8537 30.0548C59.2454 29.5929 59.0934 28.9116 59.0934 28.9116L57.9502 30.6015C57.9327 30.6015 58.3566 30.6191 58.8537 30.0548Z" fill="#1B314F"/>
<path d="M55.0146 39.2823L55.152 38.6011C55.152 38.6011 54.5878 39.5893 54.5381 39.7267C54.4854 39.8817 54.5731 40.1536 54.7924 40.136C55.0146 40.1185 55.2865 39.794 55.2865 39.5571C55.2865 39.2501 55.0146 39.2823 55.0146 39.2823Z" fill="#1B314F"/>
<path fill-rule="evenodd" clip-rule="evenodd" d="M65.1455 28.4351C65.1455 28.4351 65.9993 28.4702 66.8852 28.5725C64.8882 27.0025 62.9966 26.5435 61.4616 26.5435C59.413 26.5435 58.0042 27.3618 57.8394 27.4575L57.8274 27.4644L58.494 26.406C58.494 26.406 55.8335 26.1488 54.8949 28.9643C54.6552 28.3679 54.4359 27.4966 54.4359 27.4966C54.4359 27.4966 53.053 28.7099 53.7021 30.7215C52.1145 30.1426 49.8486 29.3385 49.7609 29.3239C49.641 29.3064 49.6059 29.359 49.6059 29.359C49.6059 29.359 49.5708 29.4087 49.6731 29.4964C49.8632 29.6455 53.4448 32.2915 54.2312 32.8032C54.0617 33.4172 54.0617 33.7066 54.2312 33.9961C54.471 34.3878 54.4856 34.5925 54.4535 34.8819C54.4184 35.1714 54.1114 37.68 54.0441 37.9869C54.0168 38.1116 53.8826 38.3653 53.7349 38.6445C53.5187 39.0531 53.2736 39.5162 53.2927 39.709C53.3278 40.0336 53.7693 41.4136 54.164 41.5685C54.4535 41.6708 55.1698 41.8931 55.6463 41.8931C55.8159 41.8931 55.9709 41.858 56.0381 41.7907C56.3276 41.5364 56.4124 41.4837 56.617 41.4837H56.6667C56.7054 41.4837 56.7477 41.4874 56.7937 41.4913L56.7938 41.4914L56.7939 41.4914L56.7939 41.4914H56.7939H56.7939H56.7939C56.8487 41.4961 56.9086 41.5013 56.9737 41.5013C57.2456 41.5013 57.6052 41.4486 57.8596 41.2118C58.0352 41.0362 58.2714 40.8303 58.4938 40.6364L58.4938 40.6364C58.7452 40.4172 58.979 40.2134 59.0876 40.0862C59.3449 39.7617 59.4793 39.3202 59.4121 38.8758C59.3595 38.4664 59.5817 38.1068 59.839 37.7501C60.1635 37.3233 60.7599 36.5572 60.7599 36.5572C61.9382 37.4402 62.6721 38.7881 62.6721 40.2879C62.6721 42.9485 60.3535 45.0975 57.4883 45.0975C57.0439 45.0975 56.6199 45.0478 56.1931 44.9454C57.5058 45.4045 58.6139 45.5594 59.5203 45.5594C61.447 45.5594 62.4703 44.8606 62.4703 44.8606C62.4703 44.8606 62.1136 45.3226 61.5318 45.8489H61.5493C64.7391 45.4045 66.2916 42.7789 66.2916 42.7789C66.2916 42.7789 66.1718 43.6327 66.0197 44.2116C70.162 41.097 69.5768 37.2186 69.5305 36.9123L69.5282 36.8964C69.5451 36.9204 69.6531 37.0517 69.7849 37.2121L69.7852 37.2123C69.9268 37.3846 70.0959 37.5903 70.2094 37.7326C70.8936 30.7039 65.1455 28.4351 65.1455 28.4351ZM58.6139 39.6593C58.5594 39.7281 58.3587 39.9103 58.1756 40.0766L58.175 40.0771C58.1325 40.1156 58.0911 40.1533 58.0526 40.1885C57.9859 40.2495 57.9174 40.3104 57.8494 40.3708L57.849 40.3712L57.8489 40.3713L57.8489 40.3713C57.7084 40.4963 57.5703 40.6191 57.4561 40.7353C57.3889 40.8025 57.2515 40.8376 57.0468 40.8376H56.8597H56.7574H56.6901H56.5351C56.7924 40.4955 57.5409 39.7119 57.7982 39.5424C58.1052 39.3377 58.2601 39.1331 58.0701 38.7764C57.883 38.4167 57.3889 38.5044 57.3889 38.5044C57.3889 38.5044 57.6783 38.3846 57.9356 38.3846C57.6111 38.2998 57.2018 38.3846 57.0146 38.5717C56.8783 38.6964 56.8483 39.0339 56.8185 39.3707C56.8035 39.5394 56.7886 39.7079 56.7603 39.8494C56.6841 40.2488 56.4425 40.4687 56.0718 40.8063L56.0716 40.8065C56.0299 40.8445 55.9866 40.8839 55.9416 40.9253C55.7019 41.1475 55.5323 41.2147 55.3949 41.2147C55.1054 41.165 54.7634 41.0773 54.5236 40.9925C54.354 40.7703 54.0968 40.0365 54.0295 39.7295C54.0656 39.6063 54.1835 39.3828 54.2846 39.1912L54.2846 39.1912L54.2846 39.1912L54.2847 39.191C54.3227 39.119 54.3583 39.0515 54.3862 38.9956L54.4156 38.9395C54.6024 38.5822 54.7125 38.3717 54.7458 38.177C54.8131 37.8875 55.0353 36.0953 55.1201 35.3468C55.3423 35.6363 55.6493 36.1158 55.5791 36.4228C56.0732 35.724 55.7165 35.0398 55.544 34.7679C55.392 34.496 55.1873 33.9493 55.3569 33.3704C55.5265 32.7915 56.1404 31.1863 56.1404 31.1863C56.1404 31.1863 56.3451 31.546 56.6346 31.4758C56.924 31.4086 59.2601 27.8942 59.2601 27.8942C59.2601 27.8942 59.8916 29.2742 59.225 30.2829C58.5438 31.2887 57.8771 31.4758 57.8771 31.4758C57.8771 31.4758 58.8157 31.6454 59.684 31.0138C60.0407 31.85 60.3828 32.7184 60.4003 32.8383C60.3881 32.8661 60.342 32.9758 60.2775 33.1291C60.0644 33.6359 59.6508 34.6192 59.5992 34.6977C59.5641 34.7328 59.3273 34.8001 59.1548 34.8352C58.8654 34.92 58.6958 34.9726 58.6256 35.0223C58.5057 35.1246 57.959 36.6245 57.7046 37.3583C57.3976 37.4431 57.0907 37.6156 56.8685 37.9548C56.9883 37.87 57.3626 37.8174 57.6374 37.7852C57.8771 37.7677 58.6081 38.1594 58.7981 38.8933V38.9284C58.8361 39.1974 58.7513 39.4547 58.6139 39.6593ZM57.1582 39.2563C57.1487 39.4215 57.1333 39.6896 57.0117 39.864C57.0439 39.8289 57.2836 39.5716 57.4064 39.4547C57.46 39.4057 57.5205 39.3673 57.5783 39.3306C57.7035 39.2511 57.8157 39.1798 57.8157 39.0278C57.8157 38.791 57.4912 38.7383 57.3538 38.7734C57.2167 38.8055 57.1844 39.0266 57.1668 39.1467L57.1667 39.1477C57.1629 39.1734 57.1608 39.211 57.1582 39.2563ZM63.8152 36.604C63.9848 35.7357 64.0024 34.9843 63.9527 34.3703C64.6163 35.2562 65.0257 36.3321 65.1455 37.4402C65.1631 37.5776 65.2976 37.7121 65.435 37.8495C65.5549 37.9519 65.6923 38.0893 65.6923 38.1741C65.6923 38.5658 65.6572 38.9576 65.5899 39.3523C65.5724 39.402 65.4204 39.4897 65.3005 39.557C65.1309 39.6418 64.976 39.7266 64.9438 39.864C64.5696 41.1767 63.7655 42.3375 62.6925 43.1561C64.2772 41.5013 65.0432 38.7705 63.8152 36.604ZM65.0783 39.9137C64.7041 41.2615 63.8503 42.4544 62.7422 43.3081C65.0958 42.1825 66.7156 39.7763 66.7156 37.0133C66.7156 33.4172 63.9848 30.4496 60.488 30.0724C60.3711 30.2595 60.2512 30.4291 60.1313 30.5665L60.1331 30.571C60.3888 31.2058 61.0523 32.8531 61.0523 32.9377C61.0523 33.04 60.7278 33.8733 60.6927 33.9083C60.6605 33.9259 60.2688 33.961 60.1138 33.961C59.9442 34.3703 59.7746 34.7621 59.7396 34.8147C59.6869 34.8819 59.5349 34.9346 59.2104 35.0194C59.183 35.0272 59.1537 35.0355 59.1235 35.0441C58.9628 35.0896 58.7779 35.1419 58.7484 35.1714C58.6636 35.2737 58.2017 36.4841 57.8947 37.3379C58.304 37.2677 58.6636 37.3525 58.7484 37.3876C59.415 36.1245 59.9413 35.4433 60.0787 35.4433C60.0927 35.4418 60.1221 35.4429 60.1643 35.4445C60.5361 35.4587 61.9003 35.5108 62.4674 34.1481C63.0721 32.6708 62.2219 31.4091 62.1626 31.3211C62.1617 31.3198 62.1609 31.3187 62.1604 31.3179C62.161 31.3182 62.1619 31.3186 62.1631 31.3192C62.2387 31.356 63.5634 31.9996 63.9 34.0136C64.666 34.9872 65.1602 36.1625 65.2976 37.408C65.2976 37.471 65.3733 37.5533 65.447 37.6334C65.4726 37.6611 65.4979 37.6887 65.5198 37.715C65.6718 37.8671 65.8268 38.022 65.8268 38.1741C65.8268 38.5834 65.7917 38.9927 65.7244 39.3845C65.6923 39.5219 65.5198 39.6242 65.3502 39.709C65.3307 39.7218 65.3095 39.7353 65.2877 39.7492C65.1949 39.8082 65.0925 39.8734 65.0783 39.9137Z" fill="#1B314F"/>
<path d="M58.2044 34.0984C58.5289 33.7242 58.3593 33.0254 57.76 32.9055C57.9149 32.5488 58.1342 31.8325 58.1342 31.8325C58.1342 31.8325 56.3946 34.5604 56.2426 34.613C56.0876 34.6656 55.9356 34.0663 55.9356 34.0663C55.611 35.3118 56.4823 35.4813 56.5846 35.0896C57.0612 34.9668 57.8798 34.4551 58.2044 34.0984Z" fill="#1B314F"/>
<path d="M56.7192 34.762L57.6051 33.2446C57.6051 33.2446 58.1168 33.5019 57.8595 33.9112C57.5379 34.3878 56.7192 34.762 56.7192 34.762Z" fill="#FFD923"/>
<path d="M67.6862 41.791C67.4289 42.133 67.1394 42.4897 66.8003 42.8318C68.9989 38.6012 66.9026 34.7302 66.8178 34.5781C66.9728 34.7331 67.1248 34.9027 67.2622 35.0547C68.9492 36.9288 69.1539 39.7444 67.6862 41.791Z" fill="#D82122"/>
<path d="M69.7329 36.3495C68.9639 34.2854 67.8734 32.5282 65.4701 30.9436C63.1516 29.4086 60.6605 29.5285 60.5231 29.546C60.5056 29.546 60.488 29.546 60.488 29.546C60.5728 29.5109 60.6576 29.4934 60.7424 29.4788C61.2716 29.3092 61.9528 29.1718 62.637 29.087C64.4468 28.8268 66.2712 29.4408 67.5167 30.7564C67.5342 30.774 67.5342 30.774 67.5518 30.7915C68.9669 32.2914 69.7007 34.1655 69.7329 36.3495Z" fill="#D82122"/>
<path d="M64.9232 27.9059C62.3825 27.4294 60.7452 27.6662 59.5669 28.1106C59.5318 27.9732 59.412 27.7013 59.3096 27.4791C58.9559 27.9059 58.5787 28.4176 58.3419 28.7421C57.6928 29.1865 57.4209 29.6134 57.4209 29.6134C57.7951 28.3328 58.8886 27.3797 60.2189 27.1399C60.5931 27.0727 61.0025 27.0376 61.4469 27.0376C62.6222 27.0551 63.7976 27.3446 64.9232 27.9059Z" fill="#D82122"/>
<path d="M55.5263 31.1804C53.5323 31.1132 54.196 28.7917 54.2311 28.6572C54.2311 28.6748 54.3656 30.4816 55.5263 31.1804Z" fill="#D82122"/>
<path d="M57.4881 27.0024C55.9531 27.9234 56.2601 30.1221 56.2601 30.1221C54.7924 27.8913 57.3682 27.0551 57.4881 27.0024Z" fill="#D82122"/>
<path d="M54.965 31.7947C55.0674 31.8795 55.1697 32.0345 55.0498 32.2567C54.9826 32.3765 54.8803 32.359 54.7253 32.2918C54.5206 32.1894 53.2927 31.4731 52.1846 30.7393C53.4476 31.1837 54.7253 31.6602 54.93 31.7626C54.93 31.7626 54.9475 31.7801 54.965 31.7947Z" fill="white"/>
<path d="M93.798 42V30.354L93.96 29.4H95.526V42H93.798ZM91.008 32.838V31.236C91.272 31.248 91.578 31.164 91.926 30.984C92.286 30.804 92.646 30.57 93.006 30.282C93.366 29.994 93.684 29.694 93.96 29.382L95.058 30.57C94.65 31.002 94.224 31.392 93.78 31.74C93.336 32.088 92.88 32.364 92.412 32.568C91.956 32.772 91.488 32.862 91.008 32.838ZM98.7843 42V33H100.494V42H98.7843ZM99.6483 31.092C99.3723 31.092 99.1323 30.99 98.9283 30.786C98.7243 30.57 98.6223 30.324 98.6223 30.048C98.6223 29.76 98.7243 29.52 98.9283 29.328C99.1323 29.124 99.3723 29.022 99.6483 29.022C99.9363 29.022 100.176 29.124 100.368 29.328C100.572 29.52 100.674 29.76 100.674 30.048C100.674 30.324 100.572 30.57 100.368 30.786C100.176 30.99 99.9363 31.092 99.6483 31.092ZM103 42V33H104.603L104.711 34.656V42H103ZM109.229 42V37.392H110.939V42H109.229ZM109.229 37.392C109.229 36.576 109.133 35.958 108.941 35.538C108.761 35.106 108.503 34.806 108.167 34.638C107.843 34.47 107.465 34.38 107.033 34.368C106.301 34.368 105.731 34.626 105.323 35.142C104.915 35.658 104.711 36.384 104.711 37.32H103.973C103.973 36.372 104.111 35.562 104.387 34.89C104.675 34.206 105.077 33.684 105.593 33.324C106.121 32.964 106.745 32.784 107.465 32.784C108.173 32.784 108.785 32.928 109.301 33.216C109.829 33.504 110.231 33.954 110.507 34.566C110.795 35.166 110.939 35.958 110.939 36.942V37.392H109.229ZM117.194 42.216C116.294 42.216 115.496 42.018 114.8 41.622C114.104 41.214 113.558 40.656 113.162 39.948C112.778 39.24 112.586 38.424 112.586 37.5C112.586 36.576 112.778 35.76 113.162 35.052C113.558 34.344 114.098 33.792 114.782 33.396C115.478 32.988 116.27 32.784 117.158 32.784C118.034 32.784 118.82 32.988 119.516 33.396C120.224 33.804 120.752 34.386 121.1 35.142L119.552 35.79C119.324 35.346 118.994 34.998 118.562 34.746C118.142 34.494 117.656 34.368 117.104 34.368C116.564 34.368 116.084 34.5 115.664 34.764C115.244 35.028 114.914 35.4 114.674 35.88C114.434 36.348 114.314 36.888 114.314 37.5C114.314 38.112 114.434 38.652 114.674 39.12C114.914 39.588 115.25 39.96 115.682 40.236C116.114 40.5 116.6 40.632 117.14 40.632C117.692 40.632 118.184 40.494 118.616 40.218C119.048 39.93 119.372 39.546 119.588 39.066L121.154 39.696C120.806 40.488 120.278 41.106 119.57 41.55C118.874 41.994 118.082 42.216 117.194 42.216ZM122.864 42V29.4H124.556V42H122.864ZM129.092 42V37.392H130.784V42H129.092ZM129.092 37.392C129.092 36.576 128.996 35.958 128.804 35.538C128.612 35.106 128.348 34.806 128.012 34.638C127.688 34.47 127.316 34.38 126.896 34.368C126.152 34.368 125.576 34.626 125.168 35.142C124.76 35.658 124.556 36.384 124.556 37.32H123.836C123.836 36.372 123.974 35.562 124.25 34.89C124.538 34.206 124.94 33.684 125.456 33.324C125.984 32.964 126.608 32.784 127.328 32.784C128.036 32.784 128.648 32.928 129.164 33.216C129.68 33.504 130.082 33.954 130.37 34.566C130.658 35.166 130.796 35.958 130.784 36.942V37.392H129.092Z" fill="#E1DFF3"/>
<defs>
<filter id="filter0_f_857_18088" x="0.5" y="0" width="174" height="72" filterUnits="userSpaceOnUse" color-interpolation-filters="sRGB">
<feFlood flood-opacity="0" result="BackgroundImageFix"/>
<feBlend mode="normal" in="SourceGraphic" in2="BackgroundImageFix" result="shape"/>
<feGaussianBlur stdDeviation="2" result="effect1_foregroundBlur_857_18088"/>
</filter>
</defs>
</svg>
