<svg width="175" height="72" viewBox="0 0 175 72" fill="none" xmlns="http://www.w3.org/2000/svg">
<g filter="url(#filter0_f_857_18045)">
<rect x="4.5" y="4" width="166" height="64" rx="32" fill="#2A2642"/>
</g>
<path d="M68.0214 39.8705C65.8845 48.442 57.2029 53.6584 48.6304 51.521C40.0614 49.3841 34.845 40.702 36.9828 32.1312C39.1188 23.5587 47.8004 18.3419 56.3702 20.4788C64.9421 22.6157 70.1583 31.2987 68.0211 39.8706L68.0213 39.8705H68.0214Z" fill="#F7931A"/>
<path fill-rule="evenodd" clip-rule="evenodd" d="M59.5571 33.7204C59.8755 31.5912 58.2545 30.4466 56.0378 29.6831L56.7569 26.7989L55.0012 26.3614L54.3011 29.1697C53.8396 29.0546 53.3655 28.9461 52.8944 28.8386L53.5995 26.0117L51.8449 25.5742L51.1254 28.4575C50.7434 28.3706 50.3683 28.2846 50.0043 28.1941L50.0063 28.185L47.5851 27.5804L47.1181 29.4556C47.1181 29.4556 48.4207 29.7542 48.3933 29.7726C49.1042 29.95 49.2328 30.4207 49.2115 30.7937L48.3923 34.0796C48.4413 34.092 48.5048 34.11 48.5749 34.1381L48.5239 34.1254C48.4805 34.1146 48.4355 34.1033 48.3893 34.0922L47.2411 38.6952C47.1542 38.9113 46.9337 39.2354 46.4366 39.1123C46.4542 39.1378 45.1605 38.7939 45.1605 38.7939L44.2888 40.8036L46.5736 41.3732C46.8238 41.4359 47.0711 41.5004 47.3158 41.5642C47.4869 41.6088 47.6567 41.653 47.8254 41.6962L47.0989 44.6135L48.8526 45.051L49.5721 42.1646C50.0512 42.2947 50.5161 42.4147 50.9713 42.5278L50.2542 45.4005L52.01 45.838L52.7365 42.9261C55.7304 43.4927 57.9815 43.2643 58.9291 40.5563C59.6926 38.3761 58.8911 37.1185 57.316 36.2984C58.4632 36.0339 59.3273 35.2793 59.5577 33.7207L59.5572 33.7203L59.5571 33.7204ZM55.5456 39.3455C55.0478 41.3458 51.9168 40.5189 50.4842 40.1405C50.3554 40.1065 50.2403 40.076 50.142 40.0517L51.1062 36.1867C51.2259 36.2166 51.3721 36.2494 51.5379 36.2866L51.5379 36.2866C53.0197 36.6191 56.0557 37.3005 55.5457 39.3455H55.5456ZM51.8351 34.4928C53.0294 34.8115 55.6349 35.5069 56.0886 33.6889H56.0888C56.5521 31.8295 54.0201 31.2689 52.7834 30.9951C52.6443 30.9643 52.5216 30.9371 52.4214 30.9121L51.5472 34.4174C51.6298 34.438 51.7266 34.4638 51.8351 34.4928Z" fill="white"/>
<path d="M84.102 42V29.4H88.152C89.016 29.4 89.754 29.532 90.366 29.796C90.99 30.06 91.47 30.45 91.806 30.966C92.154 31.482 92.328 32.118 92.328 32.874C92.328 33.45 92.19 33.966 91.914 34.422C91.65 34.866 91.278 35.232 90.798 35.52C91.422 35.82 91.896 36.222 92.22 36.726C92.556 37.23 92.724 37.83 92.724 38.526C92.724 39.258 92.556 39.888 92.22 40.416C91.896 40.932 91.434 41.328 90.834 41.604C90.234 41.868 89.514 42 88.674 42H84.102ZM85.848 40.398H88.566C89.31 40.398 89.886 40.224 90.294 39.876C90.714 39.516 90.924 39.036 90.924 38.436C90.924 37.764 90.684 37.248 90.204 36.888C89.736 36.516 89.076 36.33 88.224 36.33H85.848V40.398ZM85.848 34.818H88.44C89.088 34.818 89.598 34.644 89.97 34.296C90.354 33.948 90.546 33.468 90.546 32.856C90.546 32.22 90.33 31.734 89.898 31.398C89.466 31.05 88.86 30.876 88.08 30.876H85.848V34.818ZM94.7999 42V33H96.5099V42H94.7999ZM95.6639 31.092C95.3879 31.092 95.1479 30.99 94.9439 30.786C94.7399 30.57 94.6379 30.324 94.6379 30.048C94.6379 29.76 94.7399 29.52 94.9439 29.328C95.1479 29.124 95.3879 29.022 95.6639 29.022C95.9519 29.022 96.1919 29.124 96.3839 29.328C96.5879 29.52 96.6899 29.76 96.6899 30.048C96.6899 30.324 96.5879 30.57 96.3839 30.786C96.1919 30.99 95.9519 31.092 95.6639 31.092ZM102.49 42.216C101.59 42.216 100.894 41.988 100.402 41.532C99.9101 41.064 99.6641 40.398 99.6641 39.534V30.192H101.374V39.282C101.374 39.726 101.482 40.068 101.698 40.308C101.926 40.536 102.25 40.65 102.67 40.65C102.79 40.65 102.922 40.626 103.066 40.578C103.21 40.53 103.384 40.434 103.588 40.29L104.236 41.622C103.924 41.826 103.624 41.976 103.336 42.072C103.06 42.168 102.778 42.216 102.49 42.216ZM98.1341 34.476V33H103.93V34.476H98.1341ZM109.958 42.216C109.058 42.216 108.26 42.018 107.564 41.622C106.868 41.214 106.322 40.656 105.926 39.948C105.542 39.24 105.35 38.424 105.35 37.5C105.35 36.576 105.542 35.76 105.926 35.052C106.322 34.344 106.862 33.792 107.546 33.396C108.242 32.988 109.034 32.784 109.922 32.784C110.798 32.784 111.584 32.988 112.28 33.396C112.988 33.804 113.516 34.386 113.864 35.142L112.316 35.79C112.088 35.346 111.758 34.998 111.326 34.746C110.906 34.494 110.42 34.368 109.868 34.368C109.328 34.368 108.848 34.5 108.428 34.764C108.008 35.028 107.678 35.4 107.438 35.88C107.198 36.348 107.078 36.888 107.078 37.5C107.078 38.112 107.198 38.652 107.438 39.12C107.678 39.588 108.014 39.96 108.446 40.236C108.878 40.5 109.364 40.632 109.904 40.632C110.456 40.632 110.948 40.494 111.38 40.218C111.812 39.93 112.136 39.546 112.352 39.066L113.918 39.696C113.57 40.488 113.042 41.106 112.334 41.55C111.638 41.994 110.846 42.216 109.958 42.216ZM119.678 42.216C118.778 42.216 117.986 42.018 117.302 41.622C116.618 41.214 116.078 40.656 115.682 39.948C115.298 39.24 115.106 38.424 115.106 37.5C115.106 36.576 115.298 35.76 115.682 35.052C116.066 34.344 116.6 33.792 117.284 33.396C117.968 32.988 118.754 32.784 119.642 32.784C120.53 32.784 121.316 32.988 122 33.396C122.684 33.792 123.218 34.344 123.602 35.052C123.986 35.76 124.178 36.576 124.178 37.5C124.178 38.424 123.986 39.24 123.602 39.948C123.218 40.656 122.684 41.214 122 41.622C121.328 42.018 120.554 42.216 119.678 42.216ZM119.678 40.65C120.218 40.65 120.698 40.518 121.118 40.254C121.538 39.978 121.862 39.606 122.09 39.138C122.33 38.67 122.45 38.124 122.45 37.5C122.45 36.876 122.33 36.33 122.09 35.862C121.862 35.394 121.532 35.028 121.1 34.764C120.668 34.488 120.182 34.35 119.642 34.35C119.09 34.35 118.604 34.488 118.184 34.764C117.764 35.028 117.434 35.394 117.194 35.862C116.954 36.33 116.834 36.876 116.834 37.5C116.834 38.124 116.954 38.67 117.194 39.138C117.434 39.606 117.77 39.978 118.202 40.254C118.634 40.518 119.126 40.65 119.678 40.65ZM126.159 42V33H127.869V42H126.159ZM127.023 31.092C126.747 31.092 126.507 30.99 126.303 30.786C126.099 30.57 125.997 30.324 125.997 30.048C125.997 29.76 126.099 29.52 126.303 29.328C126.507 29.124 126.747 29.022 127.023 29.022C127.311 29.022 127.551 29.124 127.743 29.328C127.947 29.52 128.049 29.76 128.049 30.048C128.049 30.324 127.947 30.57 127.743 30.786C127.551 30.99 127.311 31.092 127.023 31.092ZM130.375 42V33H131.978L132.086 34.656V42H130.375ZM136.604 42V37.392H138.314V42H136.604ZM136.604 37.392C136.604 36.576 136.508 35.958 136.316 35.538C136.136 35.106 135.878 34.806 135.542 34.638C135.218 34.47 134.84 34.38 134.408 34.368C133.676 34.368 133.106 34.626 132.698 35.142C132.29 35.658 132.086 36.384 132.086 37.32H131.348C131.348 36.372 131.486 35.562 131.762 34.89C132.05 34.206 132.452 33.684 132.968 33.324C133.496 32.964 134.12 32.784 134.84 32.784C135.548 32.784 136.16 32.928 136.676 33.216C137.204 33.504 137.606 33.954 137.882 34.566C138.17 35.166 138.314 35.958 138.314 36.942V37.392H136.604Z" fill="#E1DFF3"/>
<defs>
<filter id="filter0_f_857_18045" x="0.5" y="0" width="174" height="72" filterUnits="userSpaceOnUse" color-interpolation-filters="sRGB">
<feFlood flood-opacity="0" result="BackgroundImageFix"/>
<feBlend mode="normal" in="SourceGraphic" in2="BackgroundImageFix" result="shape"/>
<feGaussianBlur stdDeviation="2" result="effect1_foregroundBlur_857_18045"/>
</filter>
</defs>
</svg>
