<svg width="174" height="72" viewBox="0 0 174 72" fill="none" xmlns="http://www.w3.org/2000/svg">
<g filter="url(#filter0_f_857_18113)">
<rect x="4" y="4" width="166" height="64" rx="32" fill="#2A2642"/>
</g>
<circle cx="52.5" cy="36" r="16" fill="#030000"/>
<path fill-rule="evenodd" clip-rule="evenodd" d="M64.5856 46.4857C61.7774 48.9241 58.1111 50.4001 54.1 50.4001C45.2634 50.4001 38.1 43.2367 38.1 34.4001C38.1 30.389 39.576 26.7227 42.0144 23.9146C38.6362 26.8481 36.5 31.1746 36.5 36.0001C36.5 44.8367 43.6634 52.0001 52.5 52.0001C57.3255 52.0001 61.652 49.8639 64.5856 46.4857Z" fill="#53710C"/>
<path d="M57.8419 44.2665C57.3185 44.2665 56.8388 44.2065 56.6644 44.1766C56.6934 43.9067 56.7603 43.304 56.7952 43.0521C56.8388 42.7372 56.7952 42.1975 56.5335 41.8376C56.3242 41.5497 56.0683 40.8481 55.9666 40.5332L57.0133 40.7131C57.4319 40.7851 57.8855 40.8031 58.06 40.8031C58.0309 41.1929 57.9902 42.0715 58.06 42.4673C58.1472 42.9621 58.5833 43.187 58.6269 43.5469C58.6705 43.9067 58.4961 44.2665 57.8419 44.2665Z" fill="#96BD3F"/>
<path d="M51.5589 27.7334L51.6999 27.8346C51.5766 27.9918 51.3356 28.2232 51.1773 28.2837L51.1441 28.297L51.1181 28.3079L51.038 28.3431L50.9564 28.3803L50.4529 28.6152L50.3499 28.6625L50.2673 28.6998L50.189 28.7347L50.1147 28.7671L50.0444 28.7972L49.9777 28.825L49.9147 28.8505C49.9044 28.8546 49.8943 28.8585 49.8844 28.8624L49.8549 28.8738C49.6475 28.9532 49.3719 29.0771 49.122 29.198L49.0087 29.2534C48.9718 29.2717 48.9359 29.2897 48.9012 29.3073L48.8502 29.3334L48.7666 29.185C48.8852 29.1239 49.0217 29.0566 49.1616 28.9906L49.282 28.9345C49.4426 28.8605 49.6023 28.7909 49.7392 28.7368L49.818 28.7062L49.8777 28.6825L49.941 28.6565L50.008 28.6282L50.1158 28.5813L50.1928 28.547L50.3413 28.4795L50.8812 28.2278L50.9837 28.1812L51.0485 28.1529L51.0886 28.1363L51.1118 28.1272C51.1758 28.1027 51.2698 28.0312 51.3741 27.931L51.4063 27.8995L51.4381 27.8673L51.4685 27.8355L51.4967 27.8051L51.5218 27.7773L51.5428 27.753C51.5459 27.7493 51.5488 27.7458 51.5515 27.7426L51.5589 27.7334Z" fill="#96BD3F"/>
<path d="M49.3 29.2219C49.3074 29.2192 49.3154 29.2165 49.3241 29.2138C49.4056 29.1873 49.5541 29.1463 49.6483 29.1463C49.779 29.1463 50.2579 28.9952 50.6497 29.1086C50.9632 29.1992 51.3028 29.4738 51.4334 29.5997C51.3608 29.5997 51.1199 29.5922 50.7368 29.562C50.2579 29.5242 50.0402 29.4864 49.8225 29.2975C49.6609 29.1572 49.4367 29.1797 49.3241 29.2138C49.3153 29.2167 49.3072 29.2194 49.3 29.2219Z" fill="#96BD3F"/>
<path d="M51.4605 28.6957C51.356 28.4731 50.8655 28.4175 50.6333 28.4175C50.6623 28.3866 50.7726 28.3155 50.9816 28.2784C51.2428 28.2321 51.7217 28.3248 52.0265 28.5102C52.2703 28.6586 52.6215 28.8811 52.7666 28.9739C52.7521 29.0048 52.6447 29.0666 52.3313 29.0666C51.9394 29.0666 51.5911 28.9739 51.4605 28.6957Z" fill="#96BD3F"/>
<path d="M49.232 28.7319C49.0228 28.8726 48.8555 28.7788 48.7718 28.5913C48.7579 28.4819 48.7634 28.2069 48.8973 27.9819C49.0312 27.7569 49.3993 27.5444 49.5666 27.4663C49.5248 27.5913 49.4411 27.9069 49.4411 28.1694C49.4411 28.4976 49.4411 28.5913 49.232 28.7319Z" fill="#96BD3F"/>
<path d="M50.7602 27.8793C50.5164 28.1546 50.2184 28.2521 50.0999 28.2664C50.1168 28.037 50.1913 27.5266 50.3538 27.3202C50.5164 27.1137 50.9633 26.9761 51.1665 26.9331C51.1327 27.1338 51.004 27.6041 50.7602 27.8793Z" fill="#96BD3F"/>
<path d="M52.1923 27.7462C51.9953 28.0148 51.782 28.018 51.7 27.986C51.7 27.9061 51.7082 27.7078 51.741 27.5543C51.782 27.3625 51.9051 27.0266 52.1512 26.7868C52.3482 26.5949 52.6435 26.6749 52.7666 26.7388C52.7256 26.7708 52.6271 26.8635 52.5615 26.9787C52.4794 27.1226 52.4384 27.4104 52.1923 27.7462Z" fill="#96BD3F"/>
<path d="M53.1919 28.5052C52.7422 28.4234 52.5432 28.1982 52.5 28.0958C52.6153 27.9594 52.9411 27.6967 53.3216 27.7377C53.7022 27.7786 53.9991 28.1982 54.1 28.4029C53.9847 28.4711 53.6416 28.5871 53.1919 28.5052Z" fill="#96BD3F"/>
<path d="M50.1822 28L50.3666 28.0658L50.0176 28.8L49.8333 28.7342L50.1822 28Z" fill="#96BD3F"/>
<path d="M51.4413 28L52.5 28.1067L52.492 28.5333L51.4333 28.4266L51.4413 28Z" fill="#96BD3F"/>
<path d="M49.1156 28.5332L49.2999 28.599L48.951 29.3332L48.7666 29.2674L49.1156 28.5332Z" fill="#96BD3F"/>
<path d="M47.3485 35.7636C47.085 35.9568 46.6897 36.1018 45.6795 35.9085C44.8713 35.7539 44.2008 35.3932 43.9666 35.2322C44.1422 35.2805 44.5551 35.3964 44.8011 35.4737C45.1085 35.5703 45.7673 35.522 46.1187 35.4737C46.4701 35.4254 47.1289 34.9907 47.3485 34.9424C47.5681 34.8941 47.6999 35.039 47.6999 35.2805C47.6999 35.522 47.612 35.5703 47.3485 35.7636Z" fill="#96BD3F"/>
<path d="M45.6122 35.1979C45.0856 35.2274 44.2957 34.9151 43.9666 34.7552C44.0919 34.7798 44.4179 34.8364 44.7189 34.8659C45.095 34.9027 45.7533 34.9028 45.9414 34.8659C46.1295 34.829 46.5056 34.6077 46.7407 34.6815C46.9758 34.7552 46.9288 34.9397 46.7407 35.0134C46.5526 35.0872 46.2705 35.161 45.6122 35.1979Z" fill="#96BD3F"/>
<path fill-rule="evenodd" clip-rule="evenodd" d="M49.7156 35.9909C49.8214 36.3368 50.2261 37.375 50.679 37.5047C51.2228 37.6605 51.7549 37.7958 52.7973 37.6153C53.7242 37.4548 53.9343 37.1872 54.1288 36.9395L54.1289 36.9395C54.1531 36.9087 54.177 36.8782 54.2022 36.8482C54.3437 36.679 54.4854 36.4216 54.627 36.1643C54.712 36.0099 54.7969 35.8555 54.8819 35.7201C55.1085 35.3591 55.3015 34.9777 55.3921 34.3911C55.4828 33.8045 55.3351 33.0126 54.8819 32.7418C54.4287 32.4711 53.9302 32.5614 53.749 32.6065C53.724 32.6127 53.7 32.6206 53.6758 32.6285C53.5236 32.6786 53.3633 32.7312 52.9332 32.3809C52.4347 31.9747 51.3018 31.2527 50.1235 31.4784C48.9772 31.6979 48.3028 32.259 48.0166 32.497L47.9935 32.5163C47.7216 32.7419 46.9512 33.2382 46.362 33.0126C45.7729 32.787 45.1384 32.1553 45.3197 31.3881C45.501 30.621 45.9995 30.3503 46.7699 30.3954C46.9139 30.4038 47.0546 30.4154 47.1908 30.4266C47.7833 30.4754 48.2878 30.5169 48.5826 30.26C48.9452 29.9441 48.9905 29.6734 48.9905 29.4478C48.9905 29.2222 48.8999 28.9965 48.5373 29.0868C48.3542 29.1324 48.252 29.2701 48.1548 29.401C48.0596 29.5293 47.9692 29.651 47.8122 29.6734C47.605 29.7029 47.185 29.6938 46.7291 29.684C46.4872 29.6788 46.2352 29.6734 45.9995 29.6734C45.3197 29.6734 44.5946 30.2149 44.1867 30.8917C43.7789 31.5686 43.507 32.6065 43.8695 33.148C44.1049 33.4995 44.4549 33.8131 44.7211 34.0515C44.8649 34.1803 44.9842 34.2872 45.0478 34.3663C45.1928 34.5468 45.2895 34.7424 45.3197 34.8176C45.4708 34.8477 45.8454 34.8808 46.1354 34.7725C46.2196 34.741 46.2989 34.7071 46.3733 34.6754L46.3734 34.6754L46.3734 34.6754C46.6194 34.5703 46.812 34.488 46.9512 34.592C47.1324 34.7273 47.1324 34.9078 47.0418 34.9981C47.0076 35.0322 47.038 35.0147 47.099 34.9798C47.1993 34.9223 47.3822 34.8176 47.495 34.8176C47.6763 34.8176 47.8575 34.953 47.9029 35.0883C47.9053 35.0956 47.9079 35.1031 47.9105 35.1109C47.9571 35.2478 48.0291 35.459 47.8575 35.6298C47.7125 35.7743 47.6159 35.8104 47.5856 35.8104C47.7518 35.9006 48.2382 36.0631 48.8546 35.9909C49.4709 35.9187 50.1386 35.5696 50.3954 35.4042C50.3199 35.5095 50.1325 35.7291 49.9875 35.7652C49.8425 35.8013 49.7458 35.9307 49.7156 35.9909ZM54.6997 45.4083C54.7336 45.3965 54.7642 45.3857 54.7913 45.3768C55.0088 45.3046 55.0934 45.2263 55.1085 45.1963C54.9424 44.5344 54.6463 43.0664 54.7913 42.4888C54.9363 41.9112 55.3351 40.6537 55.5164 40.0972C55.8789 40.2927 56.7581 40.6928 57.3745 40.7289C57.9908 40.765 58.7793 40.7439 59.0966 40.7289C59.2023 40.9695 59.4954 41.5231 59.8217 41.8119C60.2295 42.1729 60.5921 43.1656 60.4108 43.6169C60.2295 44.0681 60.0936 45.106 60.1842 45.2865C60.2748 45.467 61.0906 45.467 61.5891 45.3768C62.0876 45.2865 62.4048 44.9706 62.4501 44.745C62.4954 44.5194 62.4048 43.662 61.9969 42.94C61.5891 42.218 61.5891 41.1802 61.6344 40.4131C61.6706 39.7994 61.7703 38.4727 61.8157 37.8861C62.1631 38.1267 63.0211 38.6351 63.6737 38.7434C64.4332 38.8694 64.7213 38.5652 64.8305 38.4499L64.8308 38.4496C64.8345 38.4456 64.8381 38.4419 64.8413 38.4385C64.8451 38.4345 64.8487 38.4308 64.852 38.4276C64.9245 38.3554 65.0031 38.2169 65.0333 38.1568H64.2629C64.1698 38.1568 64.0691 38.2177 63.9608 38.2832C63.8052 38.3772 63.634 38.4807 63.4471 38.4276C63.1299 38.3373 62.0876 37.9312 61.8157 37.2092C61.7266 36.9727 61.6861 36.6877 61.6417 36.375V36.3749C61.5506 35.733 61.443 34.9739 60.864 34.2761C60.0029 33.2382 58.9153 32.787 57.6464 32.7419C56.6312 32.7058 55.7128 32.9374 55.3804 33.0577C55.5164 33.4939 55.664 34.1655 55.5281 34.6618C55.4181 35.0632 55.0632 35.8555 54.746 36.3067C54.7068 36.3624 54.6659 36.4226 54.6229 36.4857H54.6228L54.6227 36.4859C54.3174 36.9341 53.9146 37.5258 53.3981 37.6401C52.5824 37.8206 52.0722 37.841 51.619 37.7958C51.2564 37.7597 50.9241 37.7808 50.8033 37.7958C50.9694 38.1117 51.2655 38.8337 51.1205 39.1947C50.9392 39.6459 50.5767 40.2777 50.0782 40.5033C49.5797 40.7289 49.9875 42.218 50.486 42.7595C50.5407 42.8188 50.5947 42.8793 50.6485 42.9394C51.0855 43.4276 51.5023 43.8931 52.0268 43.5718C52.5477 43.2526 52.5727 42.9687 52.6028 42.6266C52.6067 42.5816 52.6107 42.5358 52.616 42.4888C52.6522 42.1639 52.6311 41.7818 52.616 41.6314C52.4649 41.6163 52.1175 41.5863 51.9362 41.5863H51.619C51.6945 41.3757 51.9181 40.9004 52.2081 40.6838C52.4982 40.4672 52.9936 40.2024 53.2051 40.0972C53.2051 40.7139 53.187 42.0736 53.1145 42.579C53.042 43.0844 52.7217 44.5344 52.5707 45.1963L53.2958 45.5121C53.8263 45.7153 54.3935 45.5159 54.6997 45.4083ZM49.5914 34.1203C49.7916 34.1203 49.9539 33.9991 49.9539 33.8496C49.9539 33.7001 49.7916 33.5789 49.5914 33.5789C49.3911 33.5789 49.2288 33.7001 49.2288 33.8496C49.2288 33.9991 49.3911 34.1203 49.5914 34.1203Z" fill="#96BD3F"/>
<path fill-rule="evenodd" clip-rule="evenodd" d="M64.5857 46.4856C61.7775 48.924 58.1112 50.4 54.1001 50.4C45.2635 50.4 38.1001 43.2366 38.1001 34.4C38.1001 30.3889 39.5761 26.7226 42.0145 23.9144C44.8227 21.476 48.489 20 52.5001 20C61.3367 20 68.5001 27.1634 68.5001 36C68.5001 40.0111 67.0241 43.6774 64.5857 46.4856ZM67.9668 36.1333C67.9668 43.718 61.8181 49.8667 54.2334 49.8667C46.6487 49.8667 40.5001 43.718 40.5001 36.1333C40.5001 28.5486 46.6487 22.4 54.2334 22.4C61.8181 22.4 67.9668 28.5486 67.9668 36.1333Z" fill="#8AC014"/>
<path fill-rule="evenodd" clip-rule="evenodd" d="M68.5 35.9998C68.5 38.1596 68.0721 40.2195 67.2964 42.0992C66.5759 43.1886 65.7043 44.1692 64.7115 45.0113C66.742 42.6172 67.9667 39.5182 67.9667 36.1331C67.9667 28.5484 61.8181 22.3998 54.2334 22.3998C50.8483 22.3998 47.7493 23.6245 45.3552 25.655C47.8743 22.6849 51.6337 20.7998 55.8334 20.7998C56.5698 20.7998 57.2928 20.8578 57.9979 20.9694C64.1262 23.2117 68.5 29.0949 68.5 35.9998Z" fill="#53710C"/>
<path d="M84.102 42V29.4H91.68V31.02H85.866V34.764H91.104V36.348H85.866V40.38H91.716V42H84.102ZM98.0488 45.834C97.4488 45.834 96.9028 45.774 96.4108 45.654C95.9188 45.546 95.5048 45.42 95.1688 45.276C94.8328 45.132 94.5808 45.006 94.4128 44.898L95.0608 43.512C95.2168 43.608 95.4388 43.716 95.7268 43.836C96.0148 43.968 96.3508 44.076 96.7348 44.16C97.1188 44.256 97.5448 44.304 98.0128 44.304C98.5648 44.304 99.0568 44.19 99.4888 43.962C99.9208 43.746 100.257 43.404 100.497 42.936C100.749 42.468 100.875 41.868 100.875 41.136V33H102.585V41.1C102.585 42.132 102.387 42.996 101.991 43.692C101.607 44.4 101.073 44.934 100.389 45.294C99.7168 45.654 98.9368 45.834 98.0488 45.834ZM97.8868 41.874C97.0708 41.874 96.3568 41.688 95.7448 41.316C95.1448 40.932 94.6708 40.404 94.3228 39.732C93.9868 39.048 93.8188 38.262 93.8188 37.374C93.8188 36.45 93.9868 35.646 94.3228 34.962C94.6708 34.278 95.1448 33.744 95.7448 33.36C96.3568 32.976 97.0708 32.784 97.8868 32.784C98.6308 32.784 99.2788 32.976 99.8308 33.36C100.395 33.744 100.827 34.284 101.127 34.98C101.439 35.664 101.595 36.468 101.595 37.392C101.595 38.28 101.439 39.066 101.127 39.75C100.827 40.422 100.395 40.944 99.8308 41.316C99.2788 41.688 98.6308 41.874 97.8868 41.874ZM98.3188 40.434C98.8228 40.434 99.2608 40.302 99.6328 40.038C100.005 39.762 100.299 39.396 100.515 38.94C100.731 38.472 100.839 37.938 100.839 37.338C100.839 36.738 100.731 36.21 100.515 35.754C100.299 35.298 99.9988 34.944 99.6148 34.692C99.2428 34.428 98.8048 34.296 98.3008 34.296C97.7728 34.296 97.3048 34.428 96.8968 34.692C96.5008 34.944 96.1888 35.298 95.9608 35.754C95.7328 36.21 95.6188 36.738 95.6188 37.338C95.6188 37.938 95.7328 38.472 95.9608 38.94C96.2008 39.396 96.5188 39.762 96.9148 40.038C97.3228 40.302 97.7908 40.434 98.3188 40.434ZM109.026 42.216C108.126 42.216 107.334 42.018 106.65 41.622C105.966 41.214 105.426 40.656 105.03 39.948C104.646 39.24 104.454 38.424 104.454 37.5C104.454 36.576 104.646 35.76 105.03 35.052C105.414 34.344 105.948 33.792 106.632 33.396C107.316 32.988 108.102 32.784 108.99 32.784C109.878 32.784 110.664 32.988 111.348 33.396C112.032 33.792 112.566 34.344 112.95 35.052C113.334 35.76 113.526 36.576 113.526 37.5C113.526 38.424 113.334 39.24 112.95 39.948C112.566 40.656 112.032 41.214 111.348 41.622C110.676 42.018 109.902 42.216 109.026 42.216ZM109.026 40.65C109.566 40.65 110.046 40.518 110.466 40.254C110.886 39.978 111.21 39.606 111.438 39.138C111.678 38.67 111.798 38.124 111.798 37.5C111.798 36.876 111.678 36.33 111.438 35.862C111.21 35.394 110.88 35.028 110.448 34.764C110.016 34.488 109.53 34.35 108.99 34.35C108.438 34.35 107.952 34.488 107.532 34.764C107.112 35.028 106.782 35.394 106.542 35.862C106.302 36.33 106.182 36.876 106.182 37.5C106.182 38.124 106.302 38.67 106.542 39.138C106.782 39.606 107.118 39.978 107.55 40.254C107.982 40.518 108.474 40.65 109.026 40.65ZM116.443 37.158C116.443 36.186 116.629 35.394 117.001 34.782C117.373 34.17 117.853 33.714 118.441 33.414C119.029 33.114 119.647 32.964 120.295 32.964V34.584C119.755 34.584 119.239 34.668 118.747 34.836C118.267 34.992 117.871 35.256 117.559 35.628C117.259 35.988 117.109 36.48 117.109 37.104L116.443 37.158ZM115.399 42V33H117.109V42H115.399ZM127.2 42L127.128 40.434V37.302C127.128 36.642 127.05 36.09 126.894 35.646C126.75 35.202 126.522 34.866 126.21 34.638C125.91 34.41 125.508 34.296 125.004 34.296C124.536 34.296 124.128 34.392 123.78 34.584C123.444 34.776 123.162 35.076 122.934 35.484L121.422 34.908C121.638 34.5 121.908 34.14 122.232 33.828C122.556 33.504 122.946 33.252 123.402 33.072C123.858 32.88 124.392 32.784 125.004 32.784C125.856 32.784 126.564 32.952 127.128 33.288C127.692 33.624 128.112 34.11 128.388 34.746C128.676 35.382 128.814 36.168 128.802 37.104L128.784 42H127.2ZM124.554 42.216C123.486 42.216 122.652 41.976 122.052 41.496C121.464 41.004 121.17 40.326 121.17 39.462C121.17 38.538 121.476 37.836 122.088 37.356C122.712 36.864 123.576 36.618 124.68 36.618H127.182V37.968H125.148C124.32 37.968 123.738 38.1 123.402 38.364C123.066 38.616 122.898 38.97 122.898 39.426C122.898 39.846 123.054 40.176 123.366 40.416C123.69 40.644 124.134 40.758 124.698 40.758C125.19 40.758 125.616 40.656 125.976 40.452C126.336 40.236 126.618 39.936 126.822 39.552C127.026 39.168 127.128 38.73 127.128 38.238H127.722C127.722 39.462 127.458 40.434 126.93 41.154C126.414 41.862 125.622 42.216 124.554 42.216ZM134.178 42.216C133.542 42.216 132.972 42.12 132.468 41.928C131.976 41.736 131.556 41.478 131.208 41.154C130.872 40.83 130.62 40.464 130.452 40.056L131.928 39.408C132.12 39.78 132.408 40.086 132.792 40.326C133.176 40.566 133.602 40.686 134.07 40.686C134.586 40.686 135.012 40.59 135.348 40.398C135.684 40.206 135.852 39.936 135.852 39.588C135.852 39.252 135.726 38.988 135.474 38.796C135.222 38.604 134.856 38.448 134.376 38.328L133.53 38.112C132.69 37.884 132.036 37.542 131.568 37.086C131.112 36.63 130.884 36.114 130.884 35.538C130.884 34.662 131.166 33.984 131.73 33.504C132.294 33.024 133.128 32.784 134.232 32.784C134.772 32.784 135.264 32.862 135.708 33.018C136.164 33.174 136.548 33.396 136.86 33.684C137.184 33.972 137.412 34.314 137.544 34.71L136.104 35.358C135.96 34.998 135.714 34.734 135.366 34.566C135.018 34.386 134.61 34.296 134.142 34.296C133.662 34.296 133.284 34.404 133.008 34.62C132.732 34.824 132.594 35.112 132.594 35.484C132.594 35.688 132.708 35.886 132.936 36.078C133.176 36.258 133.524 36.408 133.98 36.528L134.952 36.762C135.54 36.906 136.026 37.128 136.41 37.428C136.794 37.716 137.082 38.046 137.274 38.418C137.466 38.778 137.562 39.156 137.562 39.552C137.562 40.092 137.412 40.566 137.112 40.974C136.824 41.37 136.422 41.676 135.906 41.892C135.402 42.108 134.826 42.216 134.178 42.216Z" fill="#E1DFF3"/>
<defs>
<filter id="filter0_f_857_18113" x="0" y="0" width="174" height="72" filterUnits="userSpaceOnUse" color-interpolation-filters="sRGB">
<feFlood flood-opacity="0" result="BackgroundImageFix"/>
<feBlend mode="normal" in="SourceGraphic" in2="BackgroundImageFix" result="shape"/>
<feGaussianBlur stdDeviation="2" result="effect1_foregroundBlur_857_18113"/>
</filter>
</defs>
</svg>
