<svg width="192" height="72" viewBox="0 0 192 72" fill="none" xmlns="http://www.w3.org/2000/svg">
<g filter="url(#filter0_f_857_18051)">
<rect x="4.5" y="4" width="183" height="64" rx="32" fill="#2A2642"/>
</g>
<path fill-rule="evenodd" clip-rule="evenodd" d="M52.5 52C43.7 52 36.5 44.8001 36.5 35.9203C36.58 27.1205 43.7 19.9207 52.58 20.0007C61.38 20.0807 68.5 27.2005 68.5 36.1603C68.42 44.8801 61.3 52 52.5 52Z" fill="black"/>
<path d="M47.2654 44L49.5794 39.9929L51.8933 36L54.1931 31.9929L54.5741 31.358L54.7434 31.9929L55.4489 34.6314L54.6587 36L52.3448 39.9929L50.045 44H52.8104L55.1243 39.9929L56.3236 37.9189L56.888 39.9929L57.9603 44H60.4436L59.3713 39.9929L58.2989 36L58.0168 34.97L59.7381 31.9929H57.2266L57.142 31.6966L56.2672 28.4233L56.1543 28H53.7416L53.6852 28.0847L51.4277 31.9929L49.1138 36L46.8139 39.9929L44.5 44H47.2654Z" fill="white"/>
<path d="M92.814 42L87.828 29.4H89.628L94.704 42H92.814ZM82.662 42L87.738 29.4H89.538L84.552 42H82.662ZM85.056 38.634V37.05H92.31V38.634H85.056ZM97.0894 37.158C97.0894 36.186 97.2754 35.394 97.6474 34.782C98.0194 34.17 98.4994 33.714 99.0874 33.414C99.6754 33.114 100.293 32.964 100.941 32.964V34.584C100.401 34.584 99.8854 34.668 99.3934 34.836C98.9134 34.992 98.5174 35.256 98.2054 35.628C97.9054 35.988 97.7554 36.48 97.7554 37.104L97.0894 37.158ZM96.0454 42V33H97.7554V42H96.0454ZM102.321 42V29.4H104.031V40.326L103.941 42H102.321ZM106.983 42.216C106.227 42.216 105.567 42.018 105.003 41.622C104.451 41.226 104.025 40.674 103.725 39.966C103.425 39.258 103.275 38.436 103.275 37.5C103.275 36.552 103.425 35.73 103.725 35.034C104.025 34.326 104.451 33.774 105.003 33.378C105.567 32.982 106.227 32.784 106.983 32.784C107.787 32.784 108.495 32.982 109.107 33.378C109.719 33.774 110.193 34.326 110.529 35.034C110.877 35.73 111.051 36.552 111.051 37.5C111.051 38.436 110.877 39.258 110.529 39.966C110.193 40.674 109.719 41.226 109.107 41.622C108.495 42.018 107.787 42.216 106.983 42.216ZM106.569 40.668C107.109 40.668 107.583 40.536 107.991 40.272C108.399 39.996 108.717 39.624 108.945 39.156C109.185 38.676 109.305 38.124 109.305 37.5C109.305 36.876 109.191 36.33 108.963 35.862C108.735 35.382 108.417 35.01 108.009 34.746C107.601 34.47 107.127 34.332 106.587 34.332C106.095 34.332 105.651 34.47 105.255 34.746C104.871 35.01 104.571 35.382 104.355 35.862C104.139 36.342 104.031 36.888 104.031 37.5C104.031 38.124 104.139 38.676 104.355 39.156C104.571 39.624 104.871 39.996 105.255 40.272C105.639 40.536 106.077 40.668 106.569 40.668ZM113.028 42V33H114.738V42H113.028ZM113.892 31.092C113.616 31.092 113.376 30.99 113.172 30.786C112.968 30.57 112.866 30.324 112.866 30.048C112.866 29.76 112.968 29.52 113.172 29.328C113.376 29.124 113.616 29.022 113.892 29.022C114.18 29.022 114.42 29.124 114.612 29.328C114.816 29.52 114.918 29.76 114.918 30.048C114.918 30.324 114.816 30.57 114.612 30.786C114.42 30.99 114.18 31.092 113.892 31.092ZM120.719 42.216C119.819 42.216 119.123 41.988 118.631 41.532C118.139 41.064 117.893 40.398 117.893 39.534V30.192H119.603V39.282C119.603 39.726 119.711 40.068 119.927 40.308C120.155 40.536 120.479 40.65 120.899 40.65C121.019 40.65 121.151 40.626 121.295 40.578C121.439 40.53 121.613 40.434 121.817 40.29L122.465 41.622C122.153 41.826 121.853 41.976 121.565 42.072C121.289 42.168 121.007 42.216 120.719 42.216ZM116.363 34.476V33H122.159V34.476H116.363ZM125.197 37.158C125.197 36.186 125.383 35.394 125.755 34.782C126.127 34.17 126.607 33.714 127.195 33.414C127.783 33.114 128.401 32.964 129.049 32.964V34.584C128.509 34.584 127.993 34.668 127.501 34.836C127.021 34.992 126.625 35.256 126.313 35.628C126.013 35.988 125.863 36.48 125.863 37.104L125.197 37.158ZM124.153 42V33H125.863V42H124.153ZM136.548 42L136.44 40.344V33H138.132V42H136.548ZM130.212 37.608V33H131.922V37.608H130.212ZM131.922 37.608C131.922 38.412 132.012 39.03 132.192 39.462C132.384 39.894 132.648 40.194 132.984 40.362C133.32 40.53 133.698 40.62 134.118 40.632C134.85 40.632 135.42 40.374 135.828 39.858C136.236 39.342 136.44 38.616 136.44 37.68H137.178C137.178 38.628 137.034 39.444 136.746 40.128C136.47 40.8 136.074 41.316 135.558 41.676C135.042 42.036 134.412 42.216 133.668 42.216C132.972 42.216 132.36 42.072 131.832 41.784C131.316 41.496 130.914 41.046 130.626 40.434C130.35 39.822 130.212 39.03 130.212 38.058V37.608H131.922ZM140.518 42V33H142.12L142.192 34.242C142.48 33.762 142.84 33.402 143.272 33.162C143.704 32.91 144.202 32.784 144.766 32.784C145.486 32.784 146.098 32.952 146.602 33.288C147.106 33.612 147.472 34.11 147.7 34.782C147.964 34.134 148.336 33.642 148.816 33.306C149.296 32.958 149.866 32.784 150.526 32.784C151.546 32.784 152.344 33.12 152.92 33.792C153.496 34.452 153.778 35.472 153.766 36.852V42H152.074V37.392C152.074 36.576 151.984 35.958 151.804 35.538C151.636 35.106 151.408 34.806 151.12 34.638C150.832 34.47 150.496 34.38 150.112 34.368C149.44 34.368 148.918 34.626 148.546 35.142C148.186 35.658 148.006 36.384 148.006 37.32V42H146.296V37.392C146.296 36.576 146.212 35.958 146.044 35.538C145.876 35.106 145.642 34.806 145.342 34.638C145.054 34.47 144.718 34.38 144.334 34.368C143.662 34.368 143.14 34.626 142.768 35.142C142.408 35.658 142.228 36.384 142.228 37.32V42H140.518Z" fill="#E1DFF3"/>
<defs>
<filter id="filter0_f_857_18051" x="0.5" y="0" width="191" height="72" filterUnits="userSpaceOnUse" color-interpolation-filters="sRGB">
<feFlood flood-opacity="0" result="BackgroundImageFix"/>
<feBlend mode="normal" in="SourceGraphic" in2="BackgroundImageFix" result="shape"/>
<feGaussianBlur stdDeviation="2" result="effect1_foregroundBlur_857_18051"/>
</filter>
</defs>
</svg>
