<svg width="175" height="72" viewBox="0 0 175 72" fill="none" xmlns="http://www.w3.org/2000/svg">
<g filter="url(#filter0_f_857_18082)">
<rect x="4.5" y="4" width="166" height="64" rx="32" fill="#2A2642"/>
</g>
<circle cx="58.5" cy="36" r="16" fill="white"/>
<path d="M61.5793 36.7685C61.5793 36.5557 61.5793 36.4493 61.3674 36.343C60.6259 35.811 59.7784 35.2791 59.0369 34.7472C58.8765 34.6396 58.6675 34.6396 58.5072 34.7472L56.1767 36.4493C55.9781 36.551 55.8548 36.7575 55.8589 36.9813C55.8539 37.2106 55.78 37.4331 55.647 37.6196C55.5399 37.7806 55.5399 37.9905 55.647 38.1515C56.4945 39.8537 57.236 41.5558 58.0835 43.258C58.4013 43.7899 58.6131 44.4282 58.9309 45.0665C59.0369 44.9601 59.0369 44.8537 59.1428 44.7474C60.0962 42.6197 60.9437 40.492 61.8971 38.3643C62.003 38.1515 62.003 38.0451 61.7911 37.9387C61.55 37.6 61.4723 37.1708 61.5793 36.7685Z" fill="#CD0124"/>
<path d="M57.9667 33.9708C55.8333 32.4784 53.7 30.9859 51.6733 29.6001L51.5667 29.7067C51.6733 29.9199 51.6733 30.0265 51.78 30.2397L54.02 35.0368C54.2333 35.4632 54.34 35.8896 54.98 35.9962C55.1643 36.0128 55.3495 35.9758 55.5133 35.8896C56.1533 35.3566 56.9 34.9302 57.54 34.3972L57.9667 33.9708Z" fill="#CD0124"/>
<path fill-rule="evenodd" clip-rule="evenodd" d="M42.5 36C42.5 27.1634 49.6634 20 58.5 20C62.7435 20 66.8131 21.6857 69.8137 24.6863C72.8143 27.6869 74.5 31.7565 74.5 36C74.5 44.8366 67.3366 52 58.5 52C49.6634 52 42.5 44.8366 42.5 36ZM66.7133 29.6C66.82 29.3867 66.9267 29.28 67.14 29.28C67.8216 29.1739 68.3215 28.583 68.3133 27.8933C68.2682 27.3168 67.8942 26.8181 67.3533 26.6133C66.7921 26.4022 66.1605 26.6278 65.86 27.1467C65.7533 27.4667 65.54 27.4667 65.3267 27.4667H51.78C51.46 27.4667 51.3533 27.4667 51.2467 27.2533C50.9105 26.7145 50.2389 26.4906 49.6467 26.72C49.0957 26.9701 48.7268 27.5029 48.6867 28.1067C48.7211 28.7591 49.213 29.2957 49.86 29.3867C50.18 29.3867 50.2867 29.4933 50.2867 29.6C51.3533 31.7333 52.3133 33.76 53.2733 35.8933C53.3812 36.0548 53.3812 36.2652 53.2733 36.4267C53.0507 36.8145 53.032 37.2868 53.2235 37.691C53.4149 38.0952 53.7922 38.3799 54.2333 38.4533C54.4696 38.5011 54.6682 38.66 54.7667 38.88C55.3 39.9466 55.8066 41.0133 56.3133 42.0799C56.82 43.1466 57.3267 44.2133 57.86 45.28C57.9662 45.4801 57.9662 45.7199 57.86 45.92C57.6758 46.1887 57.606 46.5195 57.6661 46.8397C57.7261 47.1599 57.911 47.443 58.18 47.6267C58.6957 48.0223 59.4243 47.9768 59.8867 47.52C60.4204 47.064 60.5134 46.2741 60.1 45.7067C59.9921 45.5452 59.9921 45.3348 60.1 45.1733C60.9533 43.04 61.9133 40.8 62.8733 38.6667C62.98 38.4533 63.0867 38.3467 63.1933 38.3467C63.5797 38.2301 63.8962 37.951 64.0601 37.5822C64.224 37.2135 64.2191 36.7916 64.0467 36.4267V36C64.4733 34.9333 64.9267 33.8667 65.38 32.8C65.8333 31.7333 66.2867 30.6667 66.7133 29.6Z" fill="#CD0124"/>
<path d="M58.4999 33.2519C58.6601 33.3603 58.8689 33.3603 59.029 33.2519C61.0396 31.7505 63.0502 30.3563 64.9549 28.8549C65.0608 28.7477 65.1666 28.7477 65.1666 28.6404V28.5332H51.8333C51.9543 28.5782 52.0631 28.6517 52.1507 28.7477L58.4999 33.2519Z" fill="#CD0124"/>
<path d="M59.5667 33.9934C60.4047 34.6282 61.2428 35.1573 62.0809 35.6863C62.2905 35.7922 62.6047 35.6863 62.919 35.6863C63.0238 35.6863 63.1286 35.4747 63.1286 35.3689C63.8619 33.6759 64.5952 31.8771 65.3286 30.1841C65.3286 30.0783 65.4333 29.9725 65.4333 29.8667H65.3286C63.5476 31.1364 61.5571 32.512 59.5667 33.9934Z" fill="#CD0124"/>
<path d="M95.466 42.216C94.266 42.216 93.198 41.94 92.262 41.388C91.326 40.824 90.594 40.056 90.066 39.084C89.538 38.1 89.274 36.972 89.274 35.7C89.274 34.428 89.538 33.306 90.066 32.334C90.594 31.35 91.32 30.582 92.244 30.03C93.168 29.466 94.23 29.184 95.43 29.184C96.21 29.184 96.954 29.328 97.662 29.616C98.37 29.892 99 30.282 99.552 30.786C100.116 31.278 100.548 31.854 100.848 32.514L99.264 33.234C99.036 32.742 98.724 32.316 98.328 31.956C97.932 31.596 97.482 31.314 96.978 31.11C96.486 30.906 95.97 30.804 95.43 30.804C94.59 30.804 93.84 31.014 93.18 31.434C92.52 31.854 92.004 32.43 91.632 33.162C91.26 33.894 91.074 34.74 91.074 35.7C91.074 36.66 91.26 37.512 91.632 38.256C92.016 39 92.538 39.582 93.198 40.002C93.87 40.41 94.632 40.614 95.484 40.614C96.036 40.614 96.558 40.506 97.05 40.29C97.542 40.062 97.98 39.756 98.364 39.372C98.76 38.976 99.078 38.526 99.318 38.022L100.902 38.724C100.602 39.408 100.176 40.014 99.624 40.542C99.072 41.07 98.436 41.484 97.716 41.784C97.008 42.072 96.258 42.216 95.466 42.216ZM102.696 42V29.4H104.388V42H102.696ZM108.924 42V37.392H110.616V42H108.924ZM108.924 37.392C108.924 36.576 108.828 35.958 108.636 35.538C108.444 35.106 108.18 34.806 107.844 34.638C107.52 34.47 107.148 34.38 106.728 34.368C105.984 34.368 105.408 34.626 105 35.142C104.592 35.658 104.388 36.384 104.388 37.32H103.668C103.668 36.372 103.806 35.562 104.082 34.89C104.37 34.206 104.772 33.684 105.288 33.324C105.816 32.964 106.44 32.784 107.16 32.784C107.868 32.784 108.48 32.928 108.996 33.216C109.512 33.504 109.914 33.954 110.202 34.566C110.49 35.166 110.628 35.958 110.616 36.942V37.392H108.924ZM112.876 42V33H114.586V42H112.876ZM113.74 31.092C113.464 31.092 113.224 30.99 113.02 30.786C112.816 30.57 112.714 30.324 112.714 30.048C112.714 29.76 112.816 29.52 113.02 29.328C113.224 29.124 113.464 29.022 113.74 29.022C114.028 29.022 114.268 29.124 114.46 29.328C114.664 29.52 114.766 29.76 114.766 30.048C114.766 30.324 114.664 30.57 114.46 30.786C114.268 30.99 114.028 31.092 113.74 31.092ZM117.092 42V29.4H118.802V42H117.092ZM121.278 42V33H122.988V42H121.278ZM122.142 31.092C121.866 31.092 121.626 30.99 121.422 30.786C121.218 30.57 121.116 30.324 121.116 30.048C121.116 29.76 121.218 29.52 121.422 29.328C121.626 29.124 121.866 29.022 122.142 29.022C122.43 29.022 122.67 29.124 122.862 29.328C123.066 29.52 123.168 29.76 123.168 30.048C123.168 30.324 123.066 30.57 122.862 30.786C122.67 30.99 122.43 31.092 122.142 31.092ZM125.045 42V40.686L130.121 34.458H125.045V33H132.299V34.278L127.205 40.542H132.335V42H125.045Z" fill="#E1DFF3"/>
<defs>
<filter id="filter0_f_857_18082" x="0.5" y="0" width="174" height="72" filterUnits="userSpaceOnUse" color-interpolation-filters="sRGB">
<feFlood flood-opacity="0" result="BackgroundImageFix"/>
<feBlend mode="normal" in="SourceGraphic" in2="BackgroundImageFix" result="shape"/>
<feGaussianBlur stdDeviation="2" result="effect1_foregroundBlur_857_18082"/>
</filter>
</defs>
</svg>
