<svg width="174" height="72" viewBox="0 0 174 72" fill="none" xmlns="http://www.w3.org/2000/svg">
<g filter="url(#filter0_f_857_18119)">
<rect x="4" y="4" width="166" height="64" rx="32" fill="#2A2642"/>
</g>
<circle cx="54" cy="36" r="16" fill="#5B6DEE"/>
<path fill-rule="evenodd" clip-rule="evenodd" d="M49.636 35.3023C50.1851 35.2042 50.7421 35.1563 51.3 35.1592V35.1602C52.425 35.1602 53.2535 35.268 54.082 35.3759C54.9105 35.4837 55.739 35.5916 56.864 35.5916C59.911 35.5916 62 34.355 62 31.7953C62 29.2366 60.26 28 57.72 28C53.572 28 50.088 31.1472 49.636 35.3023ZM46 40.4714C46 37.9127 48.089 36.6751 51.136 36.6751C52.2604 36.6751 53.0888 36.7832 53.9173 36.8913C54.7461 36.9994 55.5749 37.1075 56.7 37.1075C57.2579 37.1103 57.8149 37.0624 58.364 36.9644C57.912 41.1205 54.428 44.2667 50.28 44.2667C47.74 44.2667 46 43.0301 46 40.4714Z" fill="white"/>
<path d="M89.67 42.216C88.998 42.216 88.386 42.138 87.834 41.982C87.294 41.826 86.82 41.616 86.412 41.352C86.016 41.076 85.686 40.77 85.422 40.434C85.158 40.098 84.972 39.744 84.864 39.372L86.574 38.814C86.754 39.306 87.096 39.732 87.6 40.092C88.104 40.452 88.722 40.638 89.454 40.65C90.342 40.65 91.038 40.476 91.542 40.128C92.058 39.768 92.316 39.294 92.316 38.706C92.316 38.166 92.094 37.728 91.65 37.392C91.206 37.044 90.618 36.78 89.886 36.6L88.428 36.222C87.852 36.066 87.324 35.844 86.844 35.556C86.376 35.268 86.004 34.902 85.728 34.458C85.452 34.014 85.314 33.48 85.314 32.856C85.314 31.704 85.686 30.804 86.43 30.156C87.186 29.508 88.272 29.184 89.688 29.184C90.504 29.184 91.212 29.316 91.812 29.58C92.412 29.832 92.904 30.168 93.288 30.588C93.684 31.008 93.966 31.47 94.134 31.974L92.424 32.55C92.22 32.01 91.872 31.578 91.38 31.254C90.888 30.918 90.282 30.75 89.562 30.75C88.806 30.75 88.206 30.93 87.762 31.29C87.33 31.65 87.114 32.142 87.114 32.766C87.114 33.294 87.282 33.702 87.618 33.99C87.966 34.266 88.428 34.476 89.004 34.62L90.462 34.98C91.638 35.268 92.544 35.748 93.18 36.42C93.828 37.08 94.152 37.806 94.152 38.598C94.152 39.282 93.978 39.9 93.63 40.452C93.294 40.992 92.79 41.424 92.118 41.748C91.458 42.06 90.642 42.216 89.67 42.216ZM99.6835 42.216C98.7835 42.216 98.0875 41.988 97.5955 41.532C97.1035 41.064 96.8575 40.398 96.8575 39.534V30.192H98.5675V39.282C98.5675 39.726 98.6755 40.068 98.8915 40.308C99.1195 40.536 99.4435 40.65 99.8635 40.65C99.9835 40.65 100.115 40.626 100.259 40.578C100.403 40.53 100.577 40.434 100.781 40.29L101.429 41.622C101.117 41.826 100.817 41.976 100.529 42.072C100.253 42.168 99.9715 42.216 99.6835 42.216ZM95.3275 34.476V33H101.123V34.476H95.3275ZM108.573 42L108.501 40.434V37.302C108.501 36.642 108.423 36.09 108.267 35.646C108.123 35.202 107.895 34.866 107.583 34.638C107.283 34.41 106.881 34.296 106.377 34.296C105.909 34.296 105.501 34.392 105.153 34.584C104.817 34.776 104.535 35.076 104.307 35.484L102.795 34.908C103.011 34.5 103.281 34.14 103.605 33.828C103.929 33.504 104.319 33.252 104.775 33.072C105.231 32.88 105.765 32.784 106.377 32.784C107.229 32.784 107.937 32.952 108.501 33.288C109.065 33.624 109.485 34.11 109.761 34.746C110.049 35.382 110.187 36.168 110.175 37.104L110.157 42H108.573ZM105.927 42.216C104.859 42.216 104.025 41.976 103.425 41.496C102.837 41.004 102.543 40.326 102.543 39.462C102.543 38.538 102.849 37.836 103.461 37.356C104.085 36.864 104.949 36.618 106.053 36.618H108.555V37.968H106.521C105.693 37.968 105.111 38.1 104.775 38.364C104.439 38.616 104.271 38.97 104.271 39.426C104.271 39.846 104.427 40.176 104.739 40.416C105.063 40.644 105.507 40.758 106.071 40.758C106.563 40.758 106.989 40.656 107.349 40.452C107.709 40.236 107.991 39.936 108.195 39.552C108.399 39.168 108.501 38.73 108.501 38.238H109.095C109.095 39.462 108.831 40.434 108.303 41.154C107.787 41.862 106.995 42.216 105.927 42.216ZM115.803 42.216C114.903 42.216 114.207 41.988 113.715 41.532C113.223 41.064 112.977 40.398 112.977 39.534V30.192H114.687V39.282C114.687 39.726 114.795 40.068 115.011 40.308C115.239 40.536 115.563 40.65 115.983 40.65C116.103 40.65 116.235 40.626 116.379 40.578C116.523 40.53 116.697 40.434 116.901 40.29L117.549 41.622C117.237 41.826 116.937 41.976 116.649 42.072C116.373 42.168 116.091 42.216 115.803 42.216ZM111.447 34.476V33H117.243V34.476H111.447ZM125.357 42L125.249 40.344V33H126.941V42H125.357ZM119.021 37.608V33H120.731V37.608H119.021ZM120.731 37.608C120.731 38.412 120.821 39.03 121.001 39.462C121.193 39.894 121.457 40.194 121.793 40.362C122.129 40.53 122.507 40.62 122.927 40.632C123.659 40.632 124.229 40.374 124.637 39.858C125.045 39.342 125.249 38.616 125.249 37.68H125.987C125.987 38.628 125.843 39.444 125.555 40.128C125.279 40.8 124.883 41.316 124.367 41.676C123.851 42.036 123.221 42.216 122.477 42.216C121.781 42.216 121.169 42.072 120.641 41.784C120.125 41.496 119.723 41.046 119.435 40.434C119.159 39.822 119.021 39.03 119.021 38.058V37.608H120.731ZM132.549 42.216C131.913 42.216 131.343 42.12 130.839 41.928C130.347 41.736 129.927 41.478 129.579 41.154C129.243 40.83 128.991 40.464 128.823 40.056L130.299 39.408C130.491 39.78 130.779 40.086 131.163 40.326C131.547 40.566 131.973 40.686 132.441 40.686C132.957 40.686 133.383 40.59 133.719 40.398C134.055 40.206 134.223 39.936 134.223 39.588C134.223 39.252 134.097 38.988 133.845 38.796C133.593 38.604 133.227 38.448 132.747 38.328L131.901 38.112C131.061 37.884 130.407 37.542 129.939 37.086C129.483 36.63 129.255 36.114 129.255 35.538C129.255 34.662 129.537 33.984 130.101 33.504C130.665 33.024 131.499 32.784 132.603 32.784C133.143 32.784 133.635 32.862 134.079 33.018C134.535 33.174 134.919 33.396 135.231 33.684C135.555 33.972 135.783 34.314 135.915 34.71L134.475 35.358C134.331 34.998 134.085 34.734 133.737 34.566C133.389 34.386 132.981 34.296 132.513 34.296C132.033 34.296 131.655 34.404 131.379 34.62C131.103 34.824 130.965 35.112 130.965 35.484C130.965 35.688 131.079 35.886 131.307 36.078C131.547 36.258 131.895 36.408 132.351 36.528L133.323 36.762C133.911 36.906 134.397 37.128 134.781 37.428C135.165 37.716 135.453 38.046 135.645 38.418C135.837 38.778 135.933 39.156 135.933 39.552C135.933 40.092 135.783 40.566 135.483 40.974C135.195 41.37 134.793 41.676 134.277 41.892C133.773 42.108 133.197 42.216 132.549 42.216Z" fill="#E1DFF3"/>
<defs>
<filter id="filter0_f_857_18119" x="0" y="0" width="174" height="72" filterUnits="userSpaceOnUse" color-interpolation-filters="sRGB">
<feFlood flood-opacity="0" result="BackgroundImageFix"/>
<feBlend mode="normal" in="SourceGraphic" in2="BackgroundImageFix" result="shape"/>
<feGaussianBlur stdDeviation="2" result="effect1_foregroundBlur_857_18119"/>
</filter>
</defs>
</svg>
