<svg width="174" height="72" viewBox="0 0 174 72" fill="none" xmlns="http://www.w3.org/2000/svg">
<g filter="url(#filter0_f_857_18131)">
<rect x="4" y="4" width="166" height="64" rx="32" fill="#2A2642"/>
</g>
<circle cx="61.5" cy="36" r="16" fill="#EDF0F4"/>
<path fill-rule="evenodd" clip-rule="evenodd" d="M62.5934 28.24L67.8334 30.92C68.5934 31.32 69.0734 32.08 69.0734 32.96V34.2H67.1534V32.96C67.1534 32.84 67.0734 32.72 66.9534 32.64L61.7134 29.96C61.6334 29.92 61.5134 29.92 61.3934 29.96L56.1534 32.64C56.0334 32.68 55.9534 32.8 55.9534 32.96V34.2H54.0334V32.96C54.0334 32.12 54.5134 31.32 55.2734 30.92L60.5134 28.24C61.1534 27.92 61.9134 27.92 62.5934 28.24ZM63.1934 35.92C63.1934 35 62.4334 34.28 61.5534 34.28C60.6334 34.28 59.9134 35 59.9134 35.92C59.9134 36.84 60.6734 37.56 61.5534 37.56C62.4334 37.56 63.1934 36.84 63.1934 35.92ZM66.9134 39.36C67.0334 39.32 67.1134 39.2 67.1134 39.04V37.8H69.0334V39.04C69.0334 39.88 68.5534 40.68 67.7934 41.08L62.5534 43.76C62.2334 43.92 61.8734 44 61.5134 44C61.1534 44 60.7934 43.92 60.4734 43.76L55.2734 41.08C54.5134 40.68 54.0334 39.92 54.0334 39.04V37.8H55.9534V39.04C55.9534 39.16 56.0334 39.28 56.1534 39.36L60.5934 41.6V39.36C59.0734 38.92 57.9934 37.56 57.9934 35.92C57.9934 33.96 59.5934 32.32 61.5934 32.32C63.5534 32.32 65.1934 33.92 65.1934 35.92C65.1934 37.56 64.0734 38.96 62.5934 39.36V41.6L66.9134 39.36Z" fill="#245AE5" fill-opacity="0.9"/>
<path d="M101.814 42L96.828 29.4H98.628L103.704 42H101.814ZM91.662 42L96.738 29.4H98.538L93.552 42H91.662ZM94.056 38.634V37.05H101.31V38.634H94.056ZM105.045 42V33H106.647L106.755 34.656V42H105.045ZM111.273 42V37.392H112.983V42H111.273ZM111.273 37.392C111.273 36.576 111.177 35.958 110.985 35.538C110.805 35.106 110.547 34.806 110.211 34.638C109.887 34.47 109.509 34.38 109.077 34.368C108.345 34.368 107.775 34.626 107.367 35.142C106.959 35.658 106.755 36.384 106.755 37.32H106.017C106.017 36.372 106.155 35.562 106.431 34.89C106.719 34.206 107.121 33.684 107.637 33.324C108.165 32.964 108.789 32.784 109.509 32.784C110.217 32.784 110.829 32.928 111.345 33.216C111.873 33.504 112.275 33.954 112.551 34.566C112.839 35.166 112.983 35.958 112.983 36.942V37.392H111.273ZM116.791 39.282L115.729 38.112L120.463 33H122.551L116.791 39.282ZM115.135 42V29.4H116.845V42H115.135ZM120.841 42L117.529 37.068L118.645 35.88L122.893 42H120.841ZM125.179 37.158C125.179 36.186 125.365 35.394 125.737 34.782C126.109 34.17 126.589 33.714 127.177 33.414C127.765 33.114 128.383 32.964 129.031 32.964V34.584C128.491 34.584 127.975 34.668 127.483 34.836C127.003 34.992 126.607 35.256 126.295 35.628C125.995 35.988 125.845 36.48 125.845 37.104L125.179 37.158ZM124.135 42V33H125.845V42H124.135Z" fill="#E1DFF3"/>
<defs>
<filter id="filter0_f_857_18131" x="0" y="0" width="174" height="72" filterUnits="userSpaceOnUse" color-interpolation-filters="sRGB">
<feFlood flood-opacity="0" result="BackgroundImageFix"/>
<feBlend mode="normal" in="SourceGraphic" in2="BackgroundImageFix" result="shape"/>
<feGaussianBlur stdDeviation="2" result="effect1_foregroundBlur_857_18131"/>
</filter>
</defs>
</svg>
