<svg width="175" height="72" viewBox="0 0 175 72" fill="none" xmlns="http://www.w3.org/2000/svg">
<g filter="url(#filter0_f_857_18075)">
<rect x="4.5" y="4" width="166" height="64" rx="32" fill="#2A2642"/>
</g>
<circle cx="48.1334" cy="35.8668" r="14.2667" fill="white"/>
<path fill-rule="evenodd" clip-rule="evenodd" d="M32 36C32 27.1634 39.1634 20 47.9999 20H48.0929C52.324 20.0123 56.377 21.7049 59.3601 24.7055C62.3432 27.7061 64.0122 31.7689 63.9999 36C63.9999 44.8366 56.8364 52 47.9999 52C39.1634 52 32 44.8366 32 36ZM46.6053 42.1598L48.2711 36.5424L50.8667 35.8063L51.4091 33.9467L48.8522 34.7215L51.5641 25.5012V25.354C51.56 25.2348 51.5088 25.1221 51.4216 25.0407C51.3344 24.9593 51.2184 24.9159 51.0992 24.9201H47.6513C47.3827 24.9118 47.143 25.0876 47.0702 25.3462L43.8547 36.2712L41.2978 37.046L40.7167 38.8281L43.2736 38.0533L40.9879 45.8402H54.6246C54.8941 45.8513 55.1354 45.6744 55.2057 45.414L55.9805 42.7409V42.5937C55.9765 42.4745 55.9252 42.3618 55.838 42.2804C55.7508 42.199 55.6348 42.1556 55.5156 42.1598H46.6053Z" fill="#345D9D"/>
<path d="M79.602 42V29.4H81.366V40.38H87.216V42H79.602ZM88.7355 42V33H90.4455V42H88.7355ZM89.5995 31.092C89.3235 31.092 89.0835 30.99 88.8795 30.786C88.6755 30.57 88.5735 30.324 88.5735 30.048C88.5735 29.76 88.6755 29.52 88.8795 29.328C89.0835 29.124 89.3235 29.022 89.5995 29.022C89.8875 29.022 90.1275 29.124 90.3195 29.328C90.5235 29.52 90.6255 29.76 90.6255 30.048C90.6255 30.324 90.5235 30.57 90.3195 30.786C90.1275 30.99 89.8875 31.092 89.5995 31.092ZM96.4257 42.216C95.5257 42.216 94.8297 41.988 94.3377 41.532C93.8457 41.064 93.5997 40.398 93.5997 39.534V30.192H95.3097V39.282C95.3097 39.726 95.4177 40.068 95.6337 40.308C95.8617 40.536 96.1857 40.65 96.6057 40.65C96.7257 40.65 96.8577 40.626 97.0017 40.578C97.1457 40.53 97.3197 40.434 97.5237 40.29L98.1717 41.622C97.8597 41.826 97.5597 41.976 97.2717 42.072C96.9957 42.168 96.7137 42.216 96.4257 42.216ZM92.0697 34.476V33H97.8657V34.476H92.0697ZM103.768 42.216C102.892 42.216 102.118 42.018 101.446 41.622C100.774 41.214 100.246 40.656 99.8616 39.948C99.4776 39.24 99.2856 38.424 99.2856 37.5C99.2856 36.576 99.4776 35.76 99.8616 35.052C100.246 34.344 100.774 33.792 101.446 33.396C102.13 32.988 102.91 32.784 103.786 32.784C104.614 32.784 105.34 32.994 105.964 33.414C106.588 33.822 107.074 34.41 107.422 35.178C107.782 35.934 107.962 36.828 107.962 37.86H100.69L101.014 37.59C101.014 38.226 101.14 38.778 101.392 39.246C101.644 39.714 101.986 40.074 102.418 40.326C102.85 40.566 103.342 40.686 103.894 40.686C104.494 40.686 104.992 40.548 105.388 40.272C105.796 39.984 106.114 39.624 106.342 39.192L107.818 39.876C107.578 40.344 107.266 40.758 106.882 41.118C106.498 41.466 106.042 41.736 105.514 41.928C104.998 42.12 104.416 42.216 103.768 42.216ZM101.122 36.78L100.78 36.51H106.468L106.144 36.78C106.144 36.252 106.036 35.802 105.82 35.43C105.604 35.046 105.316 34.758 104.956 34.566C104.596 34.362 104.194 34.26 103.75 34.26C103.318 34.26 102.898 34.362 102.49 34.566C102.094 34.758 101.764 35.04 101.5 35.412C101.248 35.784 101.122 36.24 101.122 36.78ZM113.755 42.216C112.855 42.216 112.057 42.018 111.361 41.622C110.665 41.214 110.119 40.656 109.723 39.948C109.339 39.24 109.147 38.424 109.147 37.5C109.147 36.576 109.339 35.76 109.723 35.052C110.119 34.344 110.659 33.792 111.343 33.396C112.039 32.988 112.831 32.784 113.719 32.784C114.595 32.784 115.381 32.988 116.077 33.396C116.785 33.804 117.313 34.386 117.661 35.142L116.113 35.79C115.885 35.346 115.555 34.998 115.123 34.746C114.703 34.494 114.217 34.368 113.665 34.368C113.125 34.368 112.645 34.5 112.225 34.764C111.805 35.028 111.475 35.4 111.235 35.88C110.995 36.348 110.875 36.888 110.875 37.5C110.875 38.112 110.995 38.652 111.235 39.12C111.475 39.588 111.811 39.96 112.243 40.236C112.675 40.5 113.161 40.632 113.701 40.632C114.253 40.632 114.745 40.494 115.177 40.218C115.609 39.93 115.933 39.546 116.149 39.066L117.715 39.696C117.367 40.488 116.839 41.106 116.131 41.55C115.435 41.994 114.643 42.216 113.755 42.216ZM123.475 42.216C122.575 42.216 121.783 42.018 121.099 41.622C120.415 41.214 119.875 40.656 119.479 39.948C119.095 39.24 118.903 38.424 118.903 37.5C118.903 36.576 119.095 35.76 119.479 35.052C119.863 34.344 120.397 33.792 121.081 33.396C121.765 32.988 122.551 32.784 123.439 32.784C124.327 32.784 125.113 32.988 125.797 33.396C126.481 33.792 127.015 34.344 127.399 35.052C127.783 35.76 127.975 36.576 127.975 37.5C127.975 38.424 127.783 39.24 127.399 39.948C127.015 40.656 126.481 41.214 125.797 41.622C125.125 42.018 124.351 42.216 123.475 42.216ZM123.475 40.65C124.015 40.65 124.495 40.518 124.915 40.254C125.335 39.978 125.659 39.606 125.887 39.138C126.127 38.67 126.247 38.124 126.247 37.5C126.247 36.876 126.127 36.33 125.887 35.862C125.659 35.394 125.329 35.028 124.897 34.764C124.465 34.488 123.979 34.35 123.439 34.35C122.887 34.35 122.401 34.488 121.981 34.764C121.561 35.028 121.231 35.394 120.991 35.862C120.751 36.33 120.631 36.876 120.631 37.5C120.631 38.124 120.751 38.67 120.991 39.138C121.231 39.606 121.567 39.978 121.999 40.254C122.431 40.518 122.923 40.65 123.475 40.65ZM129.956 42V33H131.666V42H129.956ZM130.82 31.092C130.544 31.092 130.304 30.99 130.1 30.786C129.896 30.57 129.794 30.324 129.794 30.048C129.794 29.76 129.896 29.52 130.1 29.328C130.304 29.124 130.544 29.022 130.82 29.022C131.108 29.022 131.348 29.124 131.54 29.328C131.744 29.52 131.846 29.76 131.846 30.048C131.846 30.324 131.744 30.57 131.54 30.786C131.348 30.99 131.108 31.092 130.82 31.092ZM134.172 42V33H135.774L135.882 34.656V42H134.172ZM140.4 42V37.392H142.11V42H140.4ZM140.4 37.392C140.4 36.576 140.304 35.958 140.112 35.538C139.932 35.106 139.674 34.806 139.338 34.638C139.014 34.47 138.636 34.38 138.204 34.368C137.472 34.368 136.902 34.626 136.494 35.142C136.086 35.658 135.882 36.384 135.882 37.32H135.144C135.144 36.372 135.282 35.562 135.558 34.89C135.846 34.206 136.248 33.684 136.764 33.324C137.292 32.964 137.916 32.784 138.636 32.784C139.344 32.784 139.956 32.928 140.472 33.216C141 33.504 141.402 33.954 141.678 34.566C141.966 35.166 142.11 35.958 142.11 36.942V37.392H140.4Z" fill="#E1DFF3"/>
<defs>
<filter id="filter0_f_857_18075" x="0.5" y="0" width="174" height="72" filterUnits="userSpaceOnUse" color-interpolation-filters="sRGB">
<feFlood flood-opacity="0" result="BackgroundImageFix"/>
<feBlend mode="normal" in="SourceGraphic" in2="BackgroundImageFix" result="shape"/>
<feGaussianBlur stdDeviation="2" result="effect1_foregroundBlur_857_18075"/>
</filter>
</defs>
</svg>
