<svg width="35" height="37" viewBox="0 0 35 37" fill="none" xmlns="http://www.w3.org/2000/svg">
<path d="M20.0635 18.4925L2.39378 35.8306C1.4564 35.1122 0.909538 33.9963 0.916322 32.8154V4.19985C0.909679 3.01892 1.4564 1.90288 2.39378 1.18457L20.0635 18.4925Z" fill="#2196F3"/>
<path d="M34.0847 18.4926C34.0849 19.8649 33.348 21.1315 32.155 21.8095L26.6068 24.8852L20.0635 18.4926L26.6067 12.1001L32.1548 15.2058C33.3404 15.8768 34.0767 17.1305 34.0847 18.4926Z" fill="#FFC107"/>
<path d="M26.6066 24.885L6.46424 36.1321C5.90636 36.4262 5.28572 36.5814 4.65505 36.5844C3.99554 36.5969 3.34649 36.4189 2.7855 36.0717C2.6508 35.9981 2.51992 35.9175 2.39355 35.8304L20.0634 18.4924L26.6066 24.885Z" fill="#F44336"/>
<path d="M26.6067 12.1001L20.0635 18.4925L2.3938 1.18458C2.5203 1.09751 2.65104 1.01695 2.78574 0.943306C3.9114 0.261184 5.31706 0.238145 6.46448 0.882952L26.6067 12.1001Z" fill="#4CAF50"/>
</svg>
