<svg width="23" height="22" viewBox="0 0 23 22" fill="none" xmlns="http://www.w3.org/2000/svg">
<path d="M21.9884 6.4934C21.975 5.57013 21.804 4.65418 21.4765 3.79066C20.9036 2.31611 19.7369 1.15013 18.2598 0.579333C17.4059 0.258565 16.503 0.0865951 15.5892 0.0670807C14.4139 0.0146358 14.0413 0 11.058 0C8.0746 0 7.69221 8.17837e-08 6.52549 0.0670807C5.61289 0.0865951 4.71006 0.258565 3.8561 0.579333C2.37907 1.15013 1.21114 2.31611 0.639385 3.79066C0.31808 4.6432 0.1446 5.54452 0.127497 6.45559C0.074964 7.63012 0.059082 8.00211 0.059082 10.9805C0.059082 13.9589 0.059082 14.3394 0.127497 15.5054C0.145822 16.4177 0.31808 17.3178 0.639385 18.1727C1.21236 19.6461 2.37907 20.8121 3.85732 21.3829C4.70762 21.7146 5.61045 21.9024 6.52671 21.9317C7.7032 21.9841 8.07582 22 11.0592 22C14.0426 22 14.4249 22 15.5917 21.9317C16.5043 21.9134 17.4071 21.7414 18.2623 21.4207C19.7393 20.8487 20.906 19.6827 21.479 18.2093C21.8003 17.3556 21.9726 16.4555 21.9909 15.542C22.0434 14.3687 22.0593 13.9967 22.0593 11.0171C22.0568 8.0387 22.0568 7.66061 21.9884 6.4934ZM11.0506 16.6128C7.93044 16.6128 5.40276 14.0894 5.40276 10.9744C5.40276 7.85941 7.93044 5.33596 11.0506 5.33596C14.1684 5.33596 16.6985 7.85941 16.6985 10.9744C16.6985 14.0894 14.1684 16.6128 11.0506 16.6128ZM16.9233 6.44218C16.194 6.44218 15.6063 5.85431 15.6063 5.1274C15.6063 4.40049 16.194 3.81262 16.9233 3.81262C17.6502 3.81262 18.2391 4.40049 18.2391 5.1274C18.2391 5.85431 17.6502 6.44218 16.9233 6.44218Z" fill="#E1DFF3"/>
</svg>
