<svg width="20" height="23" viewBox="0 0 20 23" fill="none" xmlns="http://www.w3.org/2000/svg">
<path d="M4.4767 11.7615L4.28861 11.9496C3.79429 12.4475 2.99493 12.4523 2.49699 11.958L1.27565 10.7511C0.780121 10.2592 0.775298 9.45746 1.26721 8.95952L3.18301 7.02563L4.25485 10.9525L4.4767 11.7615Z" fill="white"/>
<path d="M12.8016 16.5538L7.51478 21.8888C6.90109 22.5098 5.90039 22.5122 5.27947 21.8985L4.50784 21.1329C3.88693 20.5192 3.8821 19.5161 4.49579 18.8976L8.05371 15.3047L8.86271 15.5181L12.8016 16.5538Z" fill="white"/>
<path d="M19.4921 7.96586L18.2165 3.29872C17.9754 2.41015 17.2761 1.7193 16.3863 1.4854L11.7059 0.254417C10.8161 0.0205173 9.86604 0.27853 9.2198 0.933207L5.815 4.37177C5.16635 5.02524 4.91557 5.97651 5.15912 6.86388L6.05975 10.1638L6.43471 11.5322C6.67585 12.422 7.37513 13.1141 8.26491 13.3455L9.63696 13.7072L12.9453 14.5753C13.8351 14.8092 14.7827 14.5512 15.4314 13.8965L17.9669 11.3369C17.9766 11.3273 17.9874 11.3164 17.9959 11.3068L18.8362 10.4592C19.4848 9.8033 19.7356 8.85323 19.4921 7.96586ZM15.4591 8.87976L13.8206 10.5339C13.5084 10.8486 13.0526 10.9728 12.6234 10.8619L12.4908 10.8257L10.37 10.2687C9.9432 10.1554 9.60682 9.82259 9.48987 9.39578L8.91356 7.28225L8.87739 7.15083C8.76044 6.72282 8.87981 6.26466 9.19207 5.94999L10.8306 4.29581C10.9511 4.17525 11.0946 4.0812 11.2477 4.0173C11.4925 3.91964 11.765 3.90035 12.0278 3.96787L14.2788 4.56106C14.708 4.67439 15.0444 5.00715 15.1613 5.43396L15.7738 7.67891C15.7943 7.75125 15.8076 7.8248 15.8124 7.89834C15.8449 8.25763 15.7183 8.61813 15.4591 8.87976Z" fill="white"/>
</svg>
