<svg width="19" height="19" viewBox="0 0 19 19" fill="none" xmlns="http://www.w3.org/2000/svg">
<path d="M6.95381 13.4424L9.65381 10.7424L12.3538 13.4424L13.4038 12.3924L10.7038 9.69238L13.4038 6.99238L12.3538 5.94238L9.65381 8.64238L6.95381 5.94238L5.90381 6.99238L8.60381 9.69238L5.90381 12.3924L6.95381 13.4424ZM9.65381 17.1924C8.61631 17.1924 7.64131 16.9954 6.72881 16.6014C5.81631 16.2074 5.02256 15.6731 4.34756 14.9986C3.67256 14.3241 3.13831 13.5304 2.74481 12.6174C2.35131 11.7044 2.15431 10.7294 2.15381 9.69238C2.15331 8.65538 2.35031 7.68038 2.74481 6.76738C3.13931 5.85438 3.67356 5.06063 4.34756 4.38613C5.02156 3.71163 5.81531 3.17738 6.72881 2.78338C7.64231 2.38938 8.61731 2.19238 9.65381 2.19238C10.6903 2.19238 11.6653 2.38938 12.5788 2.78338C13.4923 3.17738 14.2861 3.71163 14.9601 4.38613C15.6341 5.06063 16.1686 5.85438 16.5636 6.76738C16.9586 7.68038 17.1553 8.65538 17.1538 9.69238C17.1523 10.7294 16.9553 11.7044 16.5628 12.6174C16.1703 13.5304 15.6361 14.3241 14.9601 14.9986C14.2841 15.6731 13.4903 16.2076 12.5788 16.6021C11.6673 16.9966 10.6923 17.1934 9.65381 17.1924Z" fill="#120D2D"/>
</svg>
