<svg width="17" height="18" viewBox="0 0 17 18" fill="none" xmlns="http://www.w3.org/2000/svg">
<path d="M13.8419 12.8078C14.1086 12.8079 14.365 12.9106 14.5581 13.0947C14.7511 13.2787 14.8659 13.53 14.8787 13.7963C14.8915 14.0627 14.8014 14.3238 14.6269 14.5255C14.4525 14.7273 14.2071 14.8541 13.9416 14.8799L13.8419 14.8847H2.76502C2.49834 14.8846 2.24192 14.7818 2.04891 14.5978C1.8559 14.4138 1.74109 14.1625 1.72828 13.8962C1.71546 13.6298 1.80562 13.3687 1.98007 13.167C2.15452 12.9652 2.39989 12.8384 2.66533 12.8126L2.76502 12.8078H13.8419ZM13.8419 7.96163C14.1174 7.96163 14.3815 8.07104 14.5762 8.26579C14.771 8.46054 14.8804 8.72468 14.8804 9.00009C14.8804 9.27551 14.771 9.53965 14.5762 9.7344C14.3815 9.92915 14.1174 10.0386 13.8419 10.0386H2.76502C2.48961 10.0386 2.22547 9.92915 2.03072 9.7344C1.83597 9.53965 1.72656 9.27551 1.72656 9.00009C1.72656 8.72468 1.83597 8.46054 2.03072 8.26579C2.22547 8.07104 2.48961 7.96163 2.76502 7.96163H13.8419ZM13.8419 3.11548C14.1174 3.11548 14.3815 3.22489 14.5762 3.41964C14.771 3.61439 14.8804 3.87852 14.8804 4.15394C14.8804 4.42936 14.771 4.69349 14.5762 4.88824C14.3815 5.08299 14.1174 5.1924 13.8419 5.1924H2.76502C2.48961 5.1924 2.22547 5.08299 2.03072 4.88824C1.83597 4.69349 1.72656 4.42936 1.72656 4.15394C1.72656 3.87852 1.83597 3.61439 2.03072 3.41964C2.22547 3.22489 2.48961 3.11548 2.76502 3.11548H13.8419Z" fill="#120D2D"/>
</svg>
