<svg width="25" height="24" viewBox="0 0 25 24" fill="none" xmlns="http://www.w3.org/2000/svg">
<path fill-rule="evenodd" clip-rule="evenodd" d="M12.8975 2C12.6322 2 12.3779 2.10536 12.1904 2.29289C12.0028 2.48043 11.8975 2.73478 11.8975 3V5H5.89746C5.36703 5 4.85832 5.21071 4.48325 5.58579C4.10817 5.96086 3.89746 6.46957 3.89746 7V20C3.89746 20.5304 4.10817 21.0391 4.48325 21.4142C4.85832 21.7893 5.36703 22 5.89746 22H19.8975C20.4279 22 20.9366 21.7893 21.3117 21.4142C21.6867 21.0391 21.8975 20.5304 21.8975 20V7C21.8975 6.46957 21.6867 5.96086 21.3117 5.58579C20.9366 5.21071 20.4279 5 19.8975 5H13.8975V3C13.8975 2.73478 13.7921 2.48043 13.6046 2.29289C13.417 2.10536 13.1627 2 12.8975 2ZM13.8975 5V13.828L15.7255 12C15.913 11.8124 16.1673 11.7069 16.4326 11.7068C16.6979 11.7067 16.9523 11.812 17.14 11.9995C17.3276 12.187 17.4331 12.4414 17.4332 12.7066C17.4333 12.9719 17.328 13.2264 17.1405 13.414L13.7805 16.773C13.5461 17.0072 13.2283 17.1387 12.897 17.1387C12.5656 17.1387 12.2479 17.0072 12.0135 16.773L8.65446 13.414C8.56162 13.3211 8.48798 13.2108 8.43776 13.0894C8.38754 12.9681 8.36171 12.838 8.36176 12.7066C8.3618 12.5753 8.38772 12.4452 8.43803 12.3239C8.48834 12.2026 8.56205 12.0923 8.65496 11.9995C8.74787 11.9067 8.85816 11.833 8.97953 11.7828C9.10089 11.7326 9.23097 11.7068 9.36231 11.7068C9.49366 11.7068 9.62372 11.7328 9.74505 11.7831C9.86638 11.8334 9.97662 11.9071 10.0695 12L11.8975 13.828V5H13.8975Z" fill="#120D2D"/>
</svg>
