<svg width="29" height="28" viewBox="0 0 29 28" fill="none" xmlns="http://www.w3.org/2000/svg">
<path d="M23.876 6.13036L16.6402 2.74317C15.3564 2.15918 13.7225 2.15918 12.4387 2.74317L5.20288 6.13036C3.56899 6.94795 2.63533 8.81674 2.86875 10.6855C3.45229 14.5399 5.3196 21.7815 11.9719 27.1542C12.7889 27.7383 13.7225 27.9718 14.5395 27.9718C15.3564 27.9718 16.2901 27.6215 16.9903 27.0374C23.6426 21.6647 25.6265 14.4231 26.0934 10.5687C26.4436 8.81675 25.5099 6.94795 23.876 6.13036Z" fill="#E1DFF3"/>
<path d="M13.9165 18.8722C13.5665 18.8722 13.2165 18.7555 12.9832 18.4055L9.83321 14.5555C9.36655 14.0888 9.48321 13.2722 9.94988 12.9222C10.4165 12.4555 11.2332 12.5722 11.5832 13.0388L13.9165 15.8388L18.8165 9.88884C19.2832 9.42218 19.9832 9.30551 20.4499 9.77218C20.9165 10.2388 21.0332 10.9388 20.5665 11.4055L14.7332 18.4055C14.6165 18.7555 14.2665 18.8722 13.9165 18.8722Z" fill="#120D2D"/>
</svg>
