<svg width="37" height="37" viewBox="0 0 37 37" fill="none" xmlns="http://www.w3.org/2000/svg">
<path d="M7.9687 0.5H28.2007C32.5549 0.5 36.0847 4.02978 36.0847 8.38398V28.616C36.0847 32.9702 32.5549 36.5 28.2007 36.5H7.9687C3.61449 36.5 0.0847168 32.9702 0.0847168 28.616V8.38398C0.0847168 4.02978 3.61449 0.5 7.9687 0.5Z" fill="url(#paint0_linear_857_17887)"/>
<path d="M11.6217 26.6296L11.6251 26.6307L10.3942 28.7625C9.94495 29.5407 8.94982 29.8074 8.17164 29.3581C7.39348 28.9088 7.12684 27.9137 7.57611 27.1355L8.48285 25.565L8.56985 25.4143C8.72526 25.1909 9.10876 24.8055 9.87587 24.8779C9.87587 24.8779 11.681 25.0738 11.8116 26.0121C11.8117 26.0121 11.8295 26.3208 11.6217 26.6296ZM29.0793 21.1845H25.2411C24.9797 21.167 24.8655 21.0736 24.8208 21.0194L24.8179 21.0144L20.7092 13.8979L20.7039 13.9015L20.4574 13.5482C20.0536 12.9306 19.4124 14.5101 19.4124 14.5101C18.6467 16.2701 19.521 18.2711 19.8259 18.8759L25.5326 28.7603C25.9818 29.5385 26.977 29.8052 27.7552 29.3559C28.5333 28.9066 28.8 27.9115 28.3507 27.1333L26.9236 24.6616C26.896 24.6018 26.8479 24.4391 27.1405 24.4385H29.0793C29.9779 24.4385 30.7064 23.7101 30.7064 22.8115C30.7064 21.9129 29.9779 21.1845 29.0793 21.1845ZM21.6243 23.3963C21.6243 23.3963 21.8291 24.4385 21.0364 24.4385H20.2437L6.84748 24.4385C5.94891 24.4385 5.22046 23.7101 5.22046 22.8115C5.22046 21.9129 5.94891 21.1845 6.84748 21.1845H10.4953C11.0842 21.1503 11.2239 20.8104 11.2239 20.8104L11.2271 20.812L15.9887 12.5646L15.9873 12.5643C16.0741 12.405 16.0018 12.2545 15.9892 12.2306L14.4167 9.50697C13.9674 8.72878 14.234 7.73369 15.0122 7.28442C15.7904 6.83512 16.7855 7.10176 17.2348 7.87994L17.9641 9.14317L18.6921 7.88219C19.1414 7.104 20.1365 6.83736 20.9146 7.28667C21.6928 7.73597 21.9595 8.73106 21.5102 9.50921L14.8842 20.9856C14.8553 21.0555 14.8464 21.1651 15.062 21.1845H19.0225L19.0234 21.223C19.0234 21.223 21.3125 21.2587 21.6243 23.3963Z" fill="white"/>
<defs>
<linearGradient id="paint0_linear_857_17887" x1="4608.08" y1="0.5" x2="4608.08" y2="9216.5" gradientUnits="userSpaceOnUse">
<stop stop-color="#17C9FB"/>
<stop offset="1" stop-color="#1A74E8"/>
</linearGradient>
</defs>
</svg>
